<mxfile host="Electron" agent="Mozilla/5.0 (Windows NT 10.0; Win64; x64) AppleWebKit/537.36 (KHTML, like Gecko) draw.io/26.0.7 Chrome/128.0.6613.186 Electron/32.2.5 Safari/537.36" version="26.0.7" pages="3">
  <diagram id="4Z8SlAoCzD3uBX52bvQF" name="debait_UC">
    <mxGraphModel dx="1985" dy="1278" grid="1" gridSize="10" guides="1" tooltips="1" connect="1" arrows="1" fold="1" page="1" pageScale="1" pageWidth="1200" pageHeight="1920" math="0" shadow="0">
      <root>
        <mxCell id="0" />
        <mxCell id="1" parent="0" />
        <mxCell id="Toesj1FdGb6VG9cIRC-i-1" value="User" style="shape=umlActor;verticalLabelPosition=bottom;verticalAlign=top;html=1;" parent="1" vertex="1">
          <mxGeometry x="40" y="517.54" width="30" height="60" as="geometry" />
        </mxCell>
        <mxCell id="Toesj1FdGb6VG9cIRC-i-2" value="Post&lt;span style=&quot;background-color: transparent; color: light-dark(rgb(0, 0, 0), rgb(255, 255, 255));&quot;&gt;&amp;nbsp;&lt;/span&gt;&lt;span style=&quot;background-color: transparent; color: light-dark(rgb(0, 0, 0), rgb(255, 255, 255));&quot;&gt;new take&lt;/span&gt;" style="ellipse;whiteSpace=wrap;html=1;" parent="1" vertex="1">
          <mxGeometry x="150" y="190" width="140" height="70" as="geometry" />
        </mxCell>
        <mxCell id="Toesj1FdGb6VG9cIRC-i-3" value="Add title (&amp;amp; description?)" style="ellipse;whiteSpace=wrap;html=1;" parent="1" vertex="1">
          <mxGeometry x="330" y="60" width="140" height="70" as="geometry" />
        </mxCell>
        <mxCell id="Toesj1FdGb6VG9cIRC-i-4" value="&amp;lt;&amp;lt;in&amp;gt;&amp;gt;" style="endArrow=open;endSize=12;dashed=1;html=1;rounded=0;" parent="1" source="Toesj1FdGb6VG9cIRC-i-2" target="Toesj1FdGb6VG9cIRC-i-3" edge="1">
          <mxGeometry width="160" relative="1" as="geometry">
            <mxPoint x="220" y="230" as="sourcePoint" />
            <mxPoint x="380" y="230" as="targetPoint" />
          </mxGeometry>
        </mxCell>
        <mxCell id="Toesj1FdGb6VG9cIRC-i-5" value="Add topic tags" style="ellipse;whiteSpace=wrap;html=1;" parent="1" vertex="1">
          <mxGeometry x="330" y="150" width="140" height="70" as="geometry" />
        </mxCell>
        <mxCell id="Toesj1FdGb6VG9cIRC-i-6" value="&amp;lt;&amp;lt;in&amp;gt;&amp;gt;" style="endArrow=open;endSize=12;dashed=1;html=1;rounded=0;" parent="1" source="Toesj1FdGb6VG9cIRC-i-2" target="Toesj1FdGb6VG9cIRC-i-5" edge="1">
          <mxGeometry width="160" relative="1" as="geometry">
            <mxPoint x="360" y="239" as="sourcePoint" />
            <mxPoint x="400" y="241" as="targetPoint" />
          </mxGeometry>
        </mxCell>
        <mxCell id="Toesj1FdGb6VG9cIRC-i-7" value="View own takes" style="ellipse;whiteSpace=wrap;html=1;" parent="1" vertex="1">
          <mxGeometry x="150" y="435" width="140" height="70" as="geometry" />
        </mxCell>
        <mxCell id="Toesj1FdGb6VG9cIRC-i-8" value="Add initial arguments" style="ellipse;whiteSpace=wrap;html=1;" parent="1" vertex="1">
          <mxGeometry x="330" y="240" width="140" height="70" as="geometry" />
        </mxCell>
        <mxCell id="Toesj1FdGb6VG9cIRC-i-9" value="&amp;lt;&amp;lt;ex&lt;span style=&quot;background-color: light-dark(#ffffff, var(--ge-dark-color, #121212)); color: light-dark(rgb(0, 0, 0), rgb(255, 255, 255));&quot;&gt;&amp;gt;&amp;gt;&lt;/span&gt;" style="endArrow=open;endSize=12;dashed=1;html=1;rounded=0;" parent="1" source="Toesj1FdGb6VG9cIRC-i-8" target="Toesj1FdGb6VG9cIRC-i-2" edge="1">
          <mxGeometry width="160" relative="1" as="geometry">
            <mxPoint x="290" y="150" as="sourcePoint" />
            <mxPoint x="380" y="150" as="targetPoint" />
          </mxGeometry>
        </mxCell>
        <mxCell id="Toesj1FdGb6VG9cIRC-i-10" value="Select take" style="ellipse;whiteSpace=wrap;html=1;" parent="1" vertex="1">
          <mxGeometry x="325" y="820" width="140" height="70" as="geometry" />
        </mxCell>
        <mxCell id="Toesj1FdGb6VG9cIRC-i-13" value="Support/critique take" style="ellipse;whiteSpace=wrap;html=1;" parent="1" vertex="1">
          <mxGeometry x="505" y="820" width="140" height="70" as="geometry" />
        </mxCell>
        <mxCell id="Toesj1FdGb6VG9cIRC-i-16" value="Pick closing condition" style="ellipse;whiteSpace=wrap;html=1;" parent="1" vertex="1">
          <mxGeometry x="330" y="330" width="140" height="70" as="geometry" />
        </mxCell>
        <mxCell id="Toesj1FdGb6VG9cIRC-i-17" value="&amp;lt;&amp;lt;in&lt;span style=&quot;background-color: light-dark(#ffffff, var(--ge-dark-color, #121212)); color: light-dark(rgb(0, 0, 0), rgb(255, 255, 255));&quot;&gt;&amp;gt;&amp;gt;&lt;/span&gt;" style="endArrow=open;endSize=12;dashed=1;html=1;rounded=0;" parent="1" source="Toesj1FdGb6VG9cIRC-i-2" target="Toesj1FdGb6VG9cIRC-i-16" edge="1">
          <mxGeometry width="160" relative="1" as="geometry">
            <mxPoint x="240" y="330" as="sourcePoint" />
            <mxPoint x="259" y="240" as="targetPoint" />
          </mxGeometry>
        </mxCell>
        <mxCell id="Toesj1FdGb6VG9cIRC-i-18" value="Add argument in favor/against" style="ellipse;whiteSpace=wrap;html=1;" parent="1" vertex="1">
          <mxGeometry x="685" y="820" width="140" height="70" as="geometry" />
        </mxCell>
        <mxCell id="Toesj1FdGb6VG9cIRC-i-19" value="&amp;lt;&amp;lt;ex&lt;span style=&quot;background-color: light-dark(#ffffff, var(--ge-dark-color, #121212)); color: light-dark(rgb(0, 0, 0), rgb(255, 255, 255));&quot;&gt;&amp;gt;&amp;gt;&lt;/span&gt;" style="endArrow=open;endSize=12;dashed=1;html=1;rounded=0;" parent="1" source="Toesj1FdGb6VG9cIRC-i-13" target="Toesj1FdGb6VG9cIRC-i-10" edge="1">
          <mxGeometry width="160" relative="1" as="geometry">
            <mxPoint x="97" y="599" as="sourcePoint" />
            <mxPoint x="23" y="581" as="targetPoint" />
          </mxGeometry>
        </mxCell>
        <mxCell id="Toesj1FdGb6VG9cIRC-i-22" value="&amp;lt;&amp;lt;ex&lt;span style=&quot;background-color: light-dark(#ffffff, var(--ge-dark-color, #121212)); color: light-dark(rgb(0, 0, 0), rgb(255, 255, 255));&quot;&gt;&amp;gt;&amp;gt;&lt;/span&gt;" style="endArrow=open;endSize=12;dashed=1;html=1;rounded=0;" parent="1" source="Toesj1FdGb6VG9cIRC-i-18" target="Toesj1FdGb6VG9cIRC-i-13" edge="1">
          <mxGeometry width="160" relative="1" as="geometry">
            <mxPoint x="546" y="817" as="sourcePoint" />
            <mxPoint x="484" y="843" as="targetPoint" />
          </mxGeometry>
        </mxCell>
        <mxCell id="Toesj1FdGb6VG9cIRC-i-26" value="Upvote/downvote other arguments" style="ellipse;whiteSpace=wrap;html=1;" parent="1" vertex="1">
          <mxGeometry x="505" y="910" width="140" height="70" as="geometry" />
        </mxCell>
        <mxCell id="Toesj1FdGb6VG9cIRC-i-27" value="&amp;lt;&amp;lt;ex&lt;span style=&quot;background-color: light-dark(#ffffff, var(--ge-dark-color, #121212)); color: light-dark(rgb(0, 0, 0), rgb(255, 255, 255));&quot;&gt;&amp;gt;&amp;gt;&lt;/span&gt;" style="endArrow=open;endSize=12;dashed=1;html=1;rounded=0;" parent="1" source="Toesj1FdGb6VG9cIRC-i-26" target="Toesj1FdGb6VG9cIRC-i-10" edge="1">
          <mxGeometry width="160" relative="1" as="geometry">
            <mxPoint x="560" y="865" as="sourcePoint" />
            <mxPoint x="500" y="865" as="targetPoint" />
          </mxGeometry>
        </mxCell>
        <mxCell id="Toesj1FdGb6VG9cIRC-i-28" value="Provide counterargument (reply-like?)" style="ellipse;whiteSpace=wrap;html=1;" parent="1" vertex="1">
          <mxGeometry x="685" y="910" width="140" height="70" as="geometry" />
        </mxCell>
        <mxCell id="Toesj1FdGb6VG9cIRC-i-29" value="&amp;lt;&amp;lt;ex&lt;span style=&quot;background-color: light-dark(#ffffff, var(--ge-dark-color, #121212)); color: light-dark(rgb(0, 0, 0), rgb(255, 255, 255));&quot;&gt;&amp;gt;&amp;gt;&lt;/span&gt;" style="endArrow=open;endSize=12;dashed=1;html=1;rounded=0;" parent="1" source="Toesj1FdGb6VG9cIRC-i-28" target="Toesj1FdGb6VG9cIRC-i-10" edge="1">
          <mxGeometry width="160" relative="1" as="geometry">
            <mxPoint x="585" y="958" as="sourcePoint" />
            <mxPoint x="475" y="892" as="targetPoint" />
          </mxGeometry>
        </mxCell>
        <mxCell id="Toesj1FdGb6VG9cIRC-i-31" value="Search takes" style="ellipse;whiteSpace=wrap;html=1;" parent="1" vertex="1">
          <mxGeometry x="325" y="910" width="140" height="70" as="geometry" />
        </mxCell>
        <mxCell id="Toesj1FdGb6VG9cIRC-i-32" value="View feed" style="ellipse;whiteSpace=wrap;html=1;" parent="1" vertex="1">
          <mxGeometry x="150" y="820" width="140" height="70" as="geometry" />
        </mxCell>
        <mxCell id="Toesj1FdGb6VG9cIRC-i-39" value="FIlter takes" style="ellipse;whiteSpace=wrap;html=1;" parent="1" vertex="1">
          <mxGeometry x="150" y="910" width="140" height="70" as="geometry" />
        </mxCell>
        <mxCell id="Toesj1FdGb6VG9cIRC-i-41" value="&amp;lt;&amp;lt;ex&lt;span style=&quot;background-color: light-dark(#ffffff, var(--ge-dark-color, #121212)); color: light-dark(rgb(0, 0, 0), rgb(255, 255, 255));&quot;&gt;&amp;gt;&amp;gt;&lt;/span&gt;" style="endArrow=open;endSize=12;dashed=1;html=1;rounded=0;" parent="1" source="Toesj1FdGb6VG9cIRC-i-39" target="Toesj1FdGb6VG9cIRC-i-32" edge="1">
          <mxGeometry width="160" relative="1" as="geometry">
            <mxPoint x="655" y="958" as="sourcePoint" />
            <mxPoint x="545" y="892" as="targetPoint" />
          </mxGeometry>
        </mxCell>
        <mxCell id="Toesj1FdGb6VG9cIRC-i-42" value="&amp;lt;&amp;lt;ex&lt;span style=&quot;background-color: light-dark(#ffffff, var(--ge-dark-color, #121212)); color: light-dark(rgb(0, 0, 0), rgb(255, 255, 255));&quot;&gt;&amp;gt;&amp;gt;&lt;/span&gt;" style="endArrow=open;endSize=12;dashed=1;html=1;rounded=0;curved=1;" parent="1" source="Toesj1FdGb6VG9cIRC-i-31" target="Toesj1FdGb6VG9cIRC-i-32" edge="1">
          <mxGeometry width="160" relative="1" as="geometry">
            <mxPoint x="321" y="910" as="sourcePoint" />
            <mxPoint x="280" y="890" as="targetPoint" />
            <Array as="points">
              <mxPoint x="340" y="910" />
            </Array>
          </mxGeometry>
        </mxCell>
        <mxCell id="Toesj1FdGb6VG9cIRC-i-43" value="&amp;lt;&amp;lt;ex&lt;span style=&quot;background-color: light-dark(#ffffff, var(--ge-dark-color, #121212)); color: light-dark(rgb(0, 0, 0), rgb(255, 255, 255));&quot;&gt;&amp;gt;&amp;gt;&lt;/span&gt;" style="endArrow=open;endSize=12;dashed=1;html=1;rounded=0;" parent="1" source="Toesj1FdGb6VG9cIRC-i-10" target="Toesj1FdGb6VG9cIRC-i-32" edge="1">
          <mxGeometry width="160" relative="1" as="geometry">
            <mxPoint x="321" y="910" as="sourcePoint" />
            <mxPoint x="280" y="890" as="targetPoint" />
          </mxGeometry>
        </mxCell>
        <mxCell id="Toesj1FdGb6VG9cIRC-i-44" value="Select take" style="ellipse;whiteSpace=wrap;html=1;" parent="1" vertex="1">
          <mxGeometry x="330" y="435" width="140" height="70" as="geometry" />
        </mxCell>
        <mxCell id="Toesj1FdGb6VG9cIRC-i-45" value="&amp;lt;&amp;lt;ex&lt;span style=&quot;background-color: light-dark(#ffffff, var(--ge-dark-color, #121212)); color: light-dark(rgb(0, 0, 0), rgb(255, 255, 255));&quot;&gt;&amp;gt;&amp;gt;&lt;/span&gt;" style="endArrow=open;endSize=12;dashed=1;html=1;rounded=0;" parent="1" source="Toesj1FdGb6VG9cIRC-i-44" target="Toesj1FdGb6VG9cIRC-i-7" edge="1">
          <mxGeometry width="160" relative="1" as="geometry">
            <mxPoint x="400" y="555" as="sourcePoint" />
            <mxPoint x="270" y="555" as="targetPoint" />
          </mxGeometry>
        </mxCell>
        <mxCell id="Toesj1FdGb6VG9cIRC-i-46" value="Close discussion" style="ellipse;whiteSpace=wrap;html=1;" parent="1" vertex="1">
          <mxGeometry x="510" y="390" width="140" height="70" as="geometry" />
        </mxCell>
        <mxCell id="Toesj1FdGb6VG9cIRC-i-47" value="&amp;lt;&amp;lt;ex&lt;span style=&quot;background-color: light-dark(#ffffff, var(--ge-dark-color, #121212)); color: light-dark(rgb(0, 0, 0), rgb(255, 255, 255));&quot;&gt;&amp;gt;&amp;gt;&lt;/span&gt;" style="endArrow=open;endSize=12;dashed=1;html=1;rounded=0;" parent="1" source="Toesj1FdGb6VG9cIRC-i-46" target="Toesj1FdGb6VG9cIRC-i-44" edge="1">
          <mxGeometry width="160" relative="1" as="geometry">
            <mxPoint x="580" y="505" as="sourcePoint" />
            <mxPoint x="490" y="505" as="targetPoint" />
          </mxGeometry>
        </mxCell>
        <mxCell id="Toesj1FdGb6VG9cIRC-i-48" value="Confirm" style="ellipse;whiteSpace=wrap;html=1;" parent="1" vertex="1">
          <mxGeometry x="685" y="350" width="140" height="70" as="geometry" />
        </mxCell>
        <mxCell id="Toesj1FdGb6VG9cIRC-i-49" value="&amp;lt;&amp;lt;in&lt;span style=&quot;background-color: light-dark(#ffffff, var(--ge-dark-color, #121212)); color: light-dark(rgb(0, 0, 0), rgb(255, 255, 255));&quot;&gt;&amp;gt;&amp;gt;&lt;/span&gt;" style="endArrow=open;endSize=12;dashed=1;html=1;rounded=0;" parent="1" source="Toesj1FdGb6VG9cIRC-i-46" target="Toesj1FdGb6VG9cIRC-i-48" edge="1">
          <mxGeometry width="160" relative="1" as="geometry">
            <mxPoint x="660" y="485" as="sourcePoint" />
            <mxPoint x="485" y="476" as="targetPoint" />
          </mxGeometry>
        </mxCell>
        <mxCell id="Toesj1FdGb6VG9cIRC-i-50" value="View summary" style="ellipse;whiteSpace=wrap;html=1;" parent="1" vertex="1">
          <mxGeometry x="690" y="435" width="140" height="70" as="geometry" />
        </mxCell>
        <mxCell id="Toesj1FdGb6VG9cIRC-i-51" value="&amp;lt;&amp;lt;ex&lt;span style=&quot;background-color: light-dark(#ffffff, var(--ge-dark-color, #121212)); color: light-dark(rgb(0, 0, 0), rgb(255, 255, 255));&quot;&gt;&amp;gt;&amp;gt;&lt;/span&gt;" style="endArrow=open;endSize=12;dashed=1;html=1;rounded=0;" parent="1" source="Toesj1FdGb6VG9cIRC-i-50" target="Toesj1FdGb6VG9cIRC-i-46" edge="1">
          <mxGeometry width="160" relative="1" as="geometry">
            <mxPoint x="545" y="463" as="sourcePoint" />
            <mxPoint x="485" y="476" as="targetPoint" />
          </mxGeometry>
        </mxCell>
        <mxCell id="Toesj1FdGb6VG9cIRC-i-53" value="Add argument" style="ellipse;whiteSpace=wrap;html=1;" parent="1" vertex="1">
          <mxGeometry x="510" y="480" width="140" height="70" as="geometry" />
        </mxCell>
        <mxCell id="Toesj1FdGb6VG9cIRC-i-54" value="&amp;lt;&amp;lt;ex&lt;span style=&quot;background-color: light-dark(#ffffff, var(--ge-dark-color, #121212)); color: light-dark(rgb(0, 0, 0), rgb(255, 255, 255));&quot;&gt;&amp;gt;&amp;gt;&lt;/span&gt;" style="endArrow=open;endSize=12;dashed=1;html=1;rounded=0;" parent="1" source="Toesj1FdGb6VG9cIRC-i-53" target="Toesj1FdGb6VG9cIRC-i-44" edge="1">
          <mxGeometry width="160" relative="1" as="geometry">
            <mxPoint x="535" y="463" as="sourcePoint" />
            <mxPoint x="475" y="476" as="targetPoint" />
          </mxGeometry>
        </mxCell>
        <mxCell id="Toesj1FdGb6VG9cIRC-i-55" value="View own profile" style="ellipse;whiteSpace=wrap;html=1;" parent="1" vertex="1">
          <mxGeometry x="150" y="590" width="140" height="70" as="geometry" />
        </mxCell>
        <mxCell id="Toesj1FdGb6VG9cIRC-i-56" value="Edit profile" style="ellipse;whiteSpace=wrap;html=1;" parent="1" vertex="1">
          <mxGeometry x="330" y="550" width="140" height="70" as="geometry" />
        </mxCell>
        <mxCell id="Toesj1FdGb6VG9cIRC-i-58" value="&amp;lt;&amp;lt;ex&lt;span style=&quot;background-color: light-dark(#ffffff, var(--ge-dark-color, #121212)); color: light-dark(rgb(0, 0, 0), rgb(255, 255, 255));&quot;&gt;&amp;gt;&amp;gt;&lt;/span&gt;" style="endArrow=open;endSize=12;dashed=1;html=1;rounded=0;" parent="1" source="Toesj1FdGb6VG9cIRC-i-56" target="Toesj1FdGb6VG9cIRC-i-55" edge="1">
          <mxGeometry width="160" relative="1" as="geometry">
            <mxPoint x="530" y="1376" as="sourcePoint" />
            <mxPoint x="420" y="1310" as="targetPoint" />
          </mxGeometry>
        </mxCell>
        <mxCell id="Toesj1FdGb6VG9cIRC-i-59" value="Settings" style="ellipse;whiteSpace=wrap;html=1;" parent="1" vertex="1">
          <mxGeometry x="150" y="710" width="140" height="70" as="geometry" />
        </mxCell>
        <mxCell id="Toesj1FdGb6VG9cIRC-i-63" value="debait" style="shape=umlFrame;whiteSpace=wrap;html=1;pointerEvents=0;" parent="1" vertex="1">
          <mxGeometry x="130" y="40" width="720" height="1057.54" as="geometry" />
        </mxCell>
        <mxCell id="8kkfBkASA5gi6q13ry-A-2" value="Filter by topics, date, type (controvercy?, etc)" style="shape=note2;boundedLbl=1;whiteSpace=wrap;html=1;size=25;verticalAlign=top;align=center;" vertex="1" parent="1">
          <mxGeometry x="160" y="1000.08" width="120" height="80" as="geometry" />
        </mxCell>
        <mxCell id="8kkfBkASA5gi6q13ry-A-3" value="" style="endArrow=none;endSize=12;dashed=1;html=1;rounded=0;startFill=0;" edge="1" parent="1" source="8kkfBkASA5gi6q13ry-A-2" target="Toesj1FdGb6VG9cIRC-i-39">
          <mxGeometry width="160" relative="1" as="geometry">
            <mxPoint x="-30" y="1110" as="sourcePoint" />
            <mxPoint x="130" y="1110" as="targetPoint" />
          </mxGeometry>
        </mxCell>
        <mxCell id="8kkfBkASA5gi6q13ry-A-4" value="(Omit description to promote concise takes?)" style="shape=note2;boundedLbl=1;whiteSpace=wrap;html=1;size=25;verticalAlign=top;align=center;" vertex="1" parent="1">
          <mxGeometry x="505" y="55" width="120" height="80" as="geometry" />
        </mxCell>
        <mxCell id="8kkfBkASA5gi6q13ry-A-5" value="" style="endArrow=none;endSize=12;dashed=1;html=1;rounded=0;startFill=0;" edge="1" parent="1" source="8kkfBkASA5gi6q13ry-A-4" target="Toesj1FdGb6VG9cIRC-i-3">
          <mxGeometry width="160" relative="1" as="geometry">
            <mxPoint x="372.09000000000003" y="138.54" as="sourcePoint" />
            <mxPoint x="477.9105631992869" y="59.99976184747553" as="targetPoint" />
          </mxGeometry>
        </mxCell>
        <mxCell id="8kkfBkASA5gi6q13ry-A-6" value="Select from existing topic tags dropdown (or add own?)" style="shape=note2;boundedLbl=1;whiteSpace=wrap;html=1;size=25;verticalAlign=top;align=center;" vertex="1" parent="1">
          <mxGeometry x="505" y="145" width="120" height="80" as="geometry" />
        </mxCell>
        <mxCell id="8kkfBkASA5gi6q13ry-A-7" value="" style="endArrow=none;endSize=12;dashed=1;html=1;rounded=0;startFill=0;" edge="1" parent="1" source="8kkfBkASA5gi6q13ry-A-6" target="Toesj1FdGb6VG9cIRC-i-5">
          <mxGeometry width="160" relative="1" as="geometry">
            <mxPoint x="412.09000000000003" y="278.53999999999996" as="sourcePoint" />
            <mxPoint x="510" y="215" as="targetPoint" />
          </mxGeometry>
        </mxCell>
        <mxCell id="8kkfBkASA5gi6q13ry-A-8" value="Manual/timed/threshold based discussion closing" style="shape=note2;boundedLbl=1;whiteSpace=wrap;html=1;size=25;verticalAlign=top;align=center;" vertex="1" parent="1">
          <mxGeometry x="505" y="240" width="125" height="80" as="geometry" />
        </mxCell>
        <mxCell id="8kkfBkASA5gi6q13ry-A-9" value="" style="endArrow=none;endSize=12;dashed=1;html=1;rounded=0;startFill=0;" edge="1" parent="1" source="8kkfBkASA5gi6q13ry-A-8" target="Toesj1FdGb6VG9cIRC-i-16">
          <mxGeometry width="160" relative="1" as="geometry">
            <mxPoint x="472.09000000000003" y="448.53999999999996" as="sourcePoint" />
            <mxPoint x="530" y="355" as="targetPoint" />
          </mxGeometry>
        </mxCell>
        <mxCell id="8kkfBkASA5gi6q13ry-A-10" value="Recent takes by followed users/topics" style="shape=note2;boundedLbl=1;whiteSpace=wrap;html=1;size=25;verticalAlign=top;align=center;" vertex="1" parent="1">
          <mxGeometry x="335" y="730" width="120" height="70" as="geometry" />
        </mxCell>
        <mxCell id="8kkfBkASA5gi6q13ry-A-11" value="" style="endArrow=none;endSize=12;dashed=1;html=1;rounded=0;startFill=0;" edge="1" parent="1" source="8kkfBkASA5gi6q13ry-A-10" target="Toesj1FdGb6VG9cIRC-i-32">
          <mxGeometry width="160" relative="1" as="geometry">
            <mxPoint x="230" y="1190" as="sourcePoint" />
            <mxPoint x="480" y="1090" as="targetPoint" />
          </mxGeometry>
        </mxCell>
        <mxCell id="8kkfBkASA5gi6q13ry-A-12" value="VIew (take/argument author) user profile/topic" style="ellipse;whiteSpace=wrap;html=1;" vertex="1" parent="1">
          <mxGeometry x="505" y="730" width="140" height="70" as="geometry" />
        </mxCell>
        <mxCell id="8kkfBkASA5gi6q13ry-A-13" value="&amp;lt;&amp;lt;ex&lt;span style=&quot;background-color: light-dark(#ffffff, var(--ge-dark-color, #121212)); color: light-dark(rgb(0, 0, 0), rgb(255, 255, 255));&quot;&gt;&amp;gt;&amp;gt;&lt;/span&gt;" style="endArrow=open;endSize=12;dashed=1;html=1;rounded=0;" edge="1" parent="1" source="8kkfBkASA5gi6q13ry-A-12" target="Toesj1FdGb6VG9cIRC-i-10">
          <mxGeometry width="160" relative="1" as="geometry">
            <mxPoint x="560" y="865" as="sourcePoint" />
            <mxPoint x="500" y="865" as="targetPoint" />
          </mxGeometry>
        </mxCell>
        <mxCell id="8kkfBkASA5gi6q13ry-A-14" value="Follow/unfollow user/topic" style="ellipse;whiteSpace=wrap;html=1;" vertex="1" parent="1">
          <mxGeometry x="505" y="640" width="140" height="70" as="geometry" />
        </mxCell>
        <mxCell id="8kkfBkASA5gi6q13ry-A-15" value="&amp;lt;&amp;lt;ex&lt;span style=&quot;background-color: light-dark(#ffffff, var(--ge-dark-color, #121212)); color: light-dark(rgb(0, 0, 0), rgb(255, 255, 255));&quot;&gt;&amp;gt;&amp;gt;&lt;/span&gt;" style="endArrow=open;endSize=12;dashed=1;html=1;rounded=0;" edge="1" parent="1" source="8kkfBkASA5gi6q13ry-A-14" target="8kkfBkASA5gi6q13ry-A-12">
          <mxGeometry width="160" relative="1" as="geometry">
            <mxPoint x="555" y="755" as="sourcePoint" />
            <mxPoint x="465" y="835" as="targetPoint" />
          </mxGeometry>
        </mxCell>
        <mxCell id="8kkfBkASA5gi6q13ry-A-16" value="Manage follows" style="ellipse;whiteSpace=wrap;html=1;" vertex="1" parent="1">
          <mxGeometry x="330" y="640" width="140" height="70" as="geometry" />
        </mxCell>
        <mxCell id="8kkfBkASA5gi6q13ry-A-18" value="&amp;lt;&amp;lt;ex&lt;span style=&quot;background-color: light-dark(#ffffff, var(--ge-dark-color, #121212)); color: light-dark(rgb(0, 0, 0), rgb(255, 255, 255));&quot;&gt;&amp;gt;&amp;gt;&lt;/span&gt;" style="endArrow=open;endSize=12;dashed=1;html=1;rounded=0;" edge="1" parent="1" source="8kkfBkASA5gi6q13ry-A-16" target="Toesj1FdGb6VG9cIRC-i-55">
          <mxGeometry width="160" relative="1" as="geometry">
            <mxPoint x="346" y="609" as="sourcePoint" />
            <mxPoint x="294" y="621" as="targetPoint" />
          </mxGeometry>
        </mxCell>
        <mxCell id="8kkfBkASA5gi6q13ry-A-19" value="&amp;lt;&amp;lt;ex&lt;span style=&quot;background-color: light-dark(#ffffff, var(--ge-dark-color, #121212)); color: light-dark(rgb(0, 0, 0), rgb(255, 255, 255));&quot;&gt;&amp;gt;&amp;gt;&lt;/span&gt;" style="endArrow=open;endSize=12;dashed=1;html=1;rounded=0;" edge="1" parent="1" source="8kkfBkASA5gi6q13ry-A-12" target="8kkfBkASA5gi6q13ry-A-16">
          <mxGeometry width="160" relative="1" as="geometry">
            <mxPoint x="536" y="800" as="sourcePoint" />
            <mxPoint x="455" y="840" as="targetPoint" />
          </mxGeometry>
        </mxCell>
        <mxCell id="8kkfBkASA5gi6q13ry-A-22" value="" style="endArrow=open;endFill=1;endSize=12;html=1;rounded=0;curved=1;" edge="1" parent="1" source="Toesj1FdGb6VG9cIRC-i-1" target="Toesj1FdGb6VG9cIRC-i-2">
          <mxGeometry width="160" relative="1" as="geometry">
            <mxPoint x="80" y="367.54" as="sourcePoint" />
            <mxPoint x="240" y="367.54" as="targetPoint" />
            <Array as="points">
              <mxPoint x="100" y="367.54" />
            </Array>
          </mxGeometry>
        </mxCell>
        <mxCell id="8kkfBkASA5gi6q13ry-A-23" value="" style="endArrow=open;endFill=1;endSize=12;html=1;rounded=0;curved=1;" edge="1" parent="1" source="Toesj1FdGb6VG9cIRC-i-1" target="Toesj1FdGb6VG9cIRC-i-7">
          <mxGeometry width="160" relative="1" as="geometry">
            <mxPoint x="70" y="550.54" as="sourcePoint" />
            <mxPoint x="231" y="266.54" as="targetPoint" />
            <Array as="points">
              <mxPoint x="110" y="497.54" />
            </Array>
          </mxGeometry>
        </mxCell>
        <mxCell id="8kkfBkASA5gi6q13ry-A-24" value="" style="endArrow=open;endFill=1;endSize=12;html=1;rounded=0;curved=1;" edge="1" parent="1" source="Toesj1FdGb6VG9cIRC-i-1" target="Toesj1FdGb6VG9cIRC-i-55">
          <mxGeometry width="160" relative="1" as="geometry">
            <mxPoint x="80" y="560.54" as="sourcePoint" />
            <mxPoint x="241" y="276.54" as="targetPoint" />
            <Array as="points">
              <mxPoint x="120" y="597.54" />
            </Array>
          </mxGeometry>
        </mxCell>
        <mxCell id="8kkfBkASA5gi6q13ry-A-25" value="" style="endArrow=open;endFill=1;endSize=12;html=1;rounded=0;curved=1;" edge="1" parent="1" source="Toesj1FdGb6VG9cIRC-i-1" target="Toesj1FdGb6VG9cIRC-i-59">
          <mxGeometry width="160" relative="1" as="geometry">
            <mxPoint x="70" y="581.54" as="sourcePoint" />
            <mxPoint x="189" y="615.54" as="targetPoint" />
            <Array as="points">
              <mxPoint x="120" y="657.54" />
            </Array>
          </mxGeometry>
        </mxCell>
        <mxCell id="8kkfBkASA5gi6q13ry-A-26" value="" style="endArrow=open;endFill=1;endSize=12;html=1;rounded=0;curved=1;" edge="1" parent="1" source="Toesj1FdGb6VG9cIRC-i-1" target="Toesj1FdGb6VG9cIRC-i-32">
          <mxGeometry width="160" relative="1" as="geometry">
            <mxPoint x="80" y="591.54" as="sourcePoint" />
            <mxPoint x="199" y="625.54" as="targetPoint" />
            <Array as="points">
              <mxPoint x="100" y="717.54" />
            </Array>
          </mxGeometry>
        </mxCell>
        <mxCell id="8kkfBkASA5gi6q13ry-A-27" value="(Other marks? lacks evidence, etc)" style="shape=note2;boundedLbl=1;whiteSpace=wrap;html=1;size=25;verticalAlign=top;align=center;" vertex="1" parent="1">
          <mxGeometry x="515" y="1000.0799999999999" width="120" height="69.92" as="geometry" />
        </mxCell>
        <mxCell id="8kkfBkASA5gi6q13ry-A-28" value="" style="endArrow=none;endSize=12;dashed=1;html=1;rounded=0;startFill=0;" edge="1" parent="1" source="8kkfBkASA5gi6q13ry-A-27" target="Toesj1FdGb6VG9cIRC-i-26">
          <mxGeometry width="160" relative="1" as="geometry">
            <mxPoint x="340" y="1100.08" as="sourcePoint" />
            <mxPoint x="569.5953290181055" y="950.0045005376015" as="targetPoint" />
          </mxGeometry>
        </mxCell>
        <mxCell id="8kkfBkASA5gi6q13ry-A-30" value="Discussion result (one side win/compromise), top agruments, etc" style="shape=note2;boundedLbl=1;whiteSpace=wrap;html=1;size=25;verticalAlign=top;align=center;" vertex="1" parent="1">
          <mxGeometry x="697.5" y="528.77" width="125" height="80" as="geometry" />
        </mxCell>
        <mxCell id="8kkfBkASA5gi6q13ry-A-31" value="" style="endArrow=none;endSize=12;dashed=1;html=1;rounded=0;startFill=0;" edge="1" parent="1" source="8kkfBkASA5gi6q13ry-A-30" target="Toesj1FdGb6VG9cIRC-i-50">
          <mxGeometry width="160" relative="1" as="geometry">
            <mxPoint x="648.09" y="748.54" as="sourcePoint" />
            <mxPoint x="625" y="640" as="targetPoint" />
          </mxGeometry>
        </mxCell>
        <mxCell id="8kkfBkASA5gi6q13ry-A-32" value="Auth required for certain functionality" style="shape=note2;boundedLbl=1;whiteSpace=wrap;html=1;size=25;verticalAlign=top;align=center;" vertex="1" parent="1">
          <mxGeometry x="10" y="730" width="105" height="70" as="geometry" />
        </mxCell>
        <mxCell id="8kkfBkASA5gi6q13ry-A-33" value="" style="endArrow=none;endSize=12;dashed=1;html=1;rounded=0;startFill=0;" edge="1" parent="1" source="8kkfBkASA5gi6q13ry-A-32" target="Toesj1FdGb6VG9cIRC-i-1">
          <mxGeometry width="160" relative="1" as="geometry">
            <mxPoint x="482.09000000000003" y="458.53999999999996" as="sourcePoint" />
            <mxPoint x="100" y="550" as="targetPoint" />
          </mxGeometry>
        </mxCell>
      </root>
    </mxGraphModel>
  </diagram>
  <diagram id="rr9EpP-2Pfttan2HxmhN" name="debait_CD">
    <mxGraphModel dx="1764" dy="1136" grid="1" gridSize="10" guides="1" tooltips="1" connect="1" arrows="1" fold="1" page="1" pageScale="1" pageWidth="1200" pageHeight="1920" math="0" shadow="0">
      <root>
        <mxCell id="0" />
        <mxCell id="1" parent="0" />
        <mxCell id="wck36eR80HzrzI6i-mt1-3" value="User" style="swimlane;fontStyle=0;childLayout=stackLayout;horizontal=1;startSize=26;fillColor=none;horizontalStack=0;resizeParent=1;resizeParentMax=0;resizeLast=0;collapsible=1;marginBottom=0;whiteSpace=wrap;html=1;" vertex="1" parent="1">
          <mxGeometry x="80" y="250" width="150" height="312" as="geometry" />
        </mxCell>
        <mxCell id="wck36eR80HzrzI6i-mt1-4" value="- id: Int&amp;nbsp;" style="text;strokeColor=none;fillColor=none;align=left;verticalAlign=top;spacingLeft=4;spacingRight=4;overflow=hidden;rotatable=0;points=[[0,0.5],[1,0.5]];portConstraint=eastwest;whiteSpace=wrap;html=1;" vertex="1" parent="wck36eR80HzrzI6i-mt1-3">
          <mxGeometry y="26" width="150" height="26" as="geometry" />
        </mxCell>
        <mxCell id="8yTgMBWg_TmCKIOZ0KKH-2" value="- email: String" style="text;strokeColor=none;fillColor=none;align=left;verticalAlign=top;spacingLeft=4;spacingRight=4;overflow=hidden;rotatable=0;points=[[0,0.5],[1,0.5]];portConstraint=eastwest;whiteSpace=wrap;html=1;" vertex="1" parent="wck36eR80HzrzI6i-mt1-3">
          <mxGeometry y="52" width="150" height="26" as="geometry" />
        </mxCell>
        <mxCell id="8yTgMBWg_TmCKIOZ0KKH-3" value="- username: String&amp;nbsp;" style="text;strokeColor=none;fillColor=none;align=left;verticalAlign=top;spacingLeft=4;spacingRight=4;overflow=hidden;rotatable=0;points=[[0,0.5],[1,0.5]];portConstraint=eastwest;whiteSpace=wrap;html=1;" vertex="1" parent="wck36eR80HzrzI6i-mt1-3">
          <mxGeometry y="78" width="150" height="26" as="geometry" />
        </mxCell>
        <mxCell id="8yTgMBWg_TmCKIOZ0KKH-5" value="- password: String (hash)&amp;nbsp;" style="text;strokeColor=none;fillColor=none;align=left;verticalAlign=top;spacingLeft=4;spacingRight=4;overflow=hidden;rotatable=0;points=[[0,0.5],[1,0.5]];portConstraint=eastwest;whiteSpace=wrap;html=1;" vertex="1" parent="wck36eR80HzrzI6i-mt1-3">
          <mxGeometry y="104" width="150" height="26" as="geometry" />
        </mxCell>
        <mxCell id="8yTgMBWg_TmCKIOZ0KKH-4" value="- takes: Take[]" style="text;strokeColor=none;fillColor=none;align=left;verticalAlign=top;spacingLeft=4;spacingRight=4;overflow=hidden;rotatable=0;points=[[0,0.5],[1,0.5]];portConstraint=eastwest;whiteSpace=wrap;html=1;" vertex="1" parent="wck36eR80HzrzI6i-mt1-3">
          <mxGeometry y="130" width="150" height="26" as="geometry" />
        </mxCell>
        <mxCell id="8yTgMBWg_TmCKIOZ0KKH-6" value="- arguments: Argument[]" style="text;strokeColor=none;fillColor=none;align=left;verticalAlign=top;spacingLeft=4;spacingRight=4;overflow=hidden;rotatable=0;points=[[0,0.5],[1,0.5]];portConstraint=eastwest;whiteSpace=wrap;html=1;" vertex="1" parent="wck36eR80HzrzI6i-mt1-3">
          <mxGeometry y="156" width="150" height="26" as="geometry" />
        </mxCell>
        <mxCell id="8yTgMBWg_TmCKIOZ0KKH-7" value="- votes: Vote[]" style="text;strokeColor=none;fillColor=none;align=left;verticalAlign=top;spacingLeft=4;spacingRight=4;overflow=hidden;rotatable=0;points=[[0,0.5],[1,0.5]];portConstraint=eastwest;whiteSpace=wrap;html=1;" vertex="1" parent="wck36eR80HzrzI6i-mt1-3">
          <mxGeometry y="182" width="150" height="26" as="geometry" />
        </mxCell>
        <mxCell id="8yTgMBWg_TmCKIOZ0KKH-8" value="- followedUsers: User[]" style="text;strokeColor=none;fillColor=none;align=left;verticalAlign=top;spacingLeft=4;spacingRight=4;overflow=hidden;rotatable=0;points=[[0,0.5],[1,0.5]];portConstraint=eastwest;whiteSpace=wrap;html=1;" vertex="1" parent="wck36eR80HzrzI6i-mt1-3">
          <mxGeometry y="208" width="150" height="26" as="geometry" />
        </mxCell>
        <mxCell id="8yTgMBWg_TmCKIOZ0KKH-9" value="- followingUsers: User[]" style="text;strokeColor=none;fillColor=none;align=left;verticalAlign=top;spacingLeft=4;spacingRight=4;overflow=hidden;rotatable=0;points=[[0,0.5],[1,0.5]];portConstraint=eastwest;whiteSpace=wrap;html=1;" vertex="1" parent="wck36eR80HzrzI6i-mt1-3">
          <mxGeometry y="234" width="150" height="26" as="geometry" />
        </mxCell>
        <mxCell id="8yTgMBWg_TmCKIOZ0KKH-10" value="- followedTopics: Topic[]" style="text;strokeColor=none;fillColor=none;align=left;verticalAlign=top;spacingLeft=4;spacingRight=4;overflow=hidden;rotatable=0;points=[[0,0.5],[1,0.5]];portConstraint=eastwest;whiteSpace=wrap;html=1;" vertex="1" parent="wck36eR80HzrzI6i-mt1-3">
          <mxGeometry y="260" width="150" height="26" as="geometry" />
        </mxCell>
        <mxCell id="OPZZS9HK3-LfXARks0nw-5" value="- createdAt: DateTime" style="text;strokeColor=none;fillColor=none;align=left;verticalAlign=top;spacingLeft=4;spacingRight=4;overflow=hidden;rotatable=0;points=[[0,0.5],[1,0.5]];portConstraint=eastwest;whiteSpace=wrap;html=1;" vertex="1" parent="wck36eR80HzrzI6i-mt1-3">
          <mxGeometry y="286" width="150" height="26" as="geometry" />
        </mxCell>
        <mxCell id="8yTgMBWg_TmCKIOZ0KKH-11" value="Take" style="swimlane;fontStyle=0;childLayout=stackLayout;horizontal=1;startSize=26;fillColor=none;horizontalStack=0;resizeParent=1;resizeParentMax=0;resizeLast=0;collapsible=1;marginBottom=0;whiteSpace=wrap;html=1;" vertex="1" parent="1">
          <mxGeometry x="390" y="40" width="140" height="234" as="geometry" />
        </mxCell>
        <mxCell id="8yTgMBWg_TmCKIOZ0KKH-12" value="- id: Int" style="text;strokeColor=none;fillColor=none;align=left;verticalAlign=top;spacingLeft=4;spacingRight=4;overflow=hidden;rotatable=0;points=[[0,0.5],[1,0.5]];portConstraint=eastwest;whiteSpace=wrap;html=1;" vertex="1" parent="8yTgMBWg_TmCKIOZ0KKH-11">
          <mxGeometry y="26" width="140" height="26" as="geometry" />
        </mxCell>
        <mxCell id="8yTgMBWg_TmCKIOZ0KKH-20" value="- author: User" style="text;strokeColor=none;fillColor=none;align=left;verticalAlign=top;spacingLeft=4;spacingRight=4;overflow=hidden;rotatable=0;points=[[0,0.5],[1,0.5]];portConstraint=eastwest;whiteSpace=wrap;html=1;" vertex="1" parent="8yTgMBWg_TmCKIOZ0KKH-11">
          <mxGeometry y="52" width="140" height="26" as="geometry" />
        </mxCell>
        <mxCell id="8yTgMBWg_TmCKIOZ0KKH-19" value="- status: Enum" style="text;strokeColor=none;fillColor=none;align=left;verticalAlign=top;spacingLeft=4;spacingRight=4;overflow=hidden;rotatable=0;points=[[0,0.5],[1,0.5]];portConstraint=eastwest;whiteSpace=wrap;html=1;" vertex="1" parent="8yTgMBWg_TmCKIOZ0KKH-11">
          <mxGeometry y="78" width="140" height="26" as="geometry" />
        </mxCell>
        <mxCell id="8yTgMBWg_TmCKIOZ0KKH-15" value="- content: String" style="text;strokeColor=none;fillColor=none;align=left;verticalAlign=top;spacingLeft=4;spacingRight=4;overflow=hidden;rotatable=0;points=[[0,0.5],[1,0.5]];portConstraint=eastwest;whiteSpace=wrap;html=1;" vertex="1" parent="8yTgMBWg_TmCKIOZ0KKH-11">
          <mxGeometry y="104" width="140" height="26" as="geometry" />
        </mxCell>
        <mxCell id="8yTgMBWg_TmCKIOZ0KKH-16" value="- topics: Topic" style="text;strokeColor=none;fillColor=none;align=left;verticalAlign=top;spacingLeft=4;spacingRight=4;overflow=hidden;rotatable=0;points=[[0,0.5],[1,0.5]];portConstraint=eastwest;whiteSpace=wrap;html=1;" vertex="1" parent="8yTgMBWg_TmCKIOZ0KKH-11">
          <mxGeometry y="130" width="140" height="26" as="geometry" />
        </mxCell>
        <mxCell id="8yTgMBWg_TmCKIOZ0KKH-17" value="- arguments: Argument[]" style="text;strokeColor=none;fillColor=none;align=left;verticalAlign=top;spacingLeft=4;spacingRight=4;overflow=hidden;rotatable=0;points=[[0,0.5],[1,0.5]];portConstraint=eastwest;whiteSpace=wrap;html=1;" vertex="1" parent="8yTgMBWg_TmCKIOZ0KKH-11">
          <mxGeometry y="156" width="140" height="26" as="geometry" />
        </mxCell>
        <mxCell id="OPZZS9HK3-LfXARks0nw-1" value="- createdAt: DateTime" style="text;strokeColor=none;fillColor=none;align=left;verticalAlign=top;spacingLeft=4;spacingRight=4;overflow=hidden;rotatable=0;points=[[0,0.5],[1,0.5]];portConstraint=eastwest;whiteSpace=wrap;html=1;" vertex="1" parent="8yTgMBWg_TmCKIOZ0KKH-11">
          <mxGeometry y="182" width="140" height="26" as="geometry" />
        </mxCell>
        <mxCell id="OPZZS9HK3-LfXARks0nw-7" value="- closedAt: DateTime" style="text;strokeColor=none;fillColor=none;align=left;verticalAlign=top;spacingLeft=4;spacingRight=4;overflow=hidden;rotatable=0;points=[[0,0.5],[1,0.5]];portConstraint=eastwest;whiteSpace=wrap;html=1;" vertex="1" parent="8yTgMBWg_TmCKIOZ0KKH-11">
          <mxGeometry y="208" width="140" height="26" as="geometry" />
        </mxCell>
        <mxCell id="8yTgMBWg_TmCKIOZ0KKH-22" value="Argument" style="swimlane;fontStyle=0;childLayout=stackLayout;horizontal=1;startSize=26;fillColor=none;horizontalStack=0;resizeParent=1;resizeParentMax=0;resizeLast=0;collapsible=1;marginBottom=0;whiteSpace=wrap;html=1;" vertex="1" parent="1">
          <mxGeometry x="390" y="350" width="140" height="208" as="geometry" />
        </mxCell>
        <mxCell id="8yTgMBWg_TmCKIOZ0KKH-23" value="- id: Int" style="text;strokeColor=none;fillColor=none;align=left;verticalAlign=top;spacingLeft=4;spacingRight=4;overflow=hidden;rotatable=0;points=[[0,0.5],[1,0.5]];portConstraint=eastwest;whiteSpace=wrap;html=1;" vertex="1" parent="8yTgMBWg_TmCKIOZ0KKH-22">
          <mxGeometry y="26" width="140" height="26" as="geometry" />
        </mxCell>
        <mxCell id="8yTgMBWg_TmCKIOZ0KKH-25" value="- author: User" style="text;strokeColor=none;fillColor=none;align=left;verticalAlign=top;spacingLeft=4;spacingRight=4;overflow=hidden;rotatable=0;points=[[0,0.5],[1,0.5]];portConstraint=eastwest;whiteSpace=wrap;html=1;" vertex="1" parent="8yTgMBWg_TmCKIOZ0KKH-22">
          <mxGeometry y="52" width="140" height="26" as="geometry" />
        </mxCell>
        <mxCell id="8yTgMBWg_TmCKIOZ0KKH-26" value="- take: Take" style="text;strokeColor=none;fillColor=none;align=left;verticalAlign=top;spacingLeft=4;spacingRight=4;overflow=hidden;rotatable=0;points=[[0,0.5],[1,0.5]];portConstraint=eastwest;whiteSpace=wrap;html=1;" vertex="1" parent="8yTgMBWg_TmCKIOZ0KKH-22">
          <mxGeometry y="78" width="140" height="26" as="geometry" />
        </mxCell>
        <mxCell id="8yTgMBWg_TmCKIOZ0KKH-27" value="- type: Enum" style="text;strokeColor=none;fillColor=none;align=left;verticalAlign=top;spacingLeft=4;spacingRight=4;overflow=hidden;rotatable=0;points=[[0,0.5],[1,0.5]];portConstraint=eastwest;whiteSpace=wrap;html=1;" vertex="1" parent="8yTgMBWg_TmCKIOZ0KKH-22">
          <mxGeometry y="104" width="140" height="26" as="geometry" />
        </mxCell>
        <mxCell id="8yTgMBWg_TmCKIOZ0KKH-82" value="- content: String" style="text;strokeColor=none;fillColor=none;align=left;verticalAlign=top;spacingLeft=4;spacingRight=4;overflow=hidden;rotatable=0;points=[[0,0.5],[1,0.5]];portConstraint=eastwest;whiteSpace=wrap;html=1;" vertex="1" parent="8yTgMBWg_TmCKIOZ0KKH-22">
          <mxGeometry y="130" width="140" height="26" as="geometry" />
        </mxCell>
        <mxCell id="8yTgMBWg_TmCKIOZ0KKH-29" value="- votes: Vote[]" style="text;strokeColor=none;fillColor=none;align=left;verticalAlign=top;spacingLeft=4;spacingRight=4;overflow=hidden;rotatable=0;points=[[0,0.5],[1,0.5]];portConstraint=eastwest;whiteSpace=wrap;html=1;" vertex="1" parent="8yTgMBWg_TmCKIOZ0KKH-22">
          <mxGeometry y="156" width="140" height="26" as="geometry" />
        </mxCell>
        <mxCell id="OPZZS9HK3-LfXARks0nw-2" value="- createdAt: DateTime" style="text;strokeColor=none;fillColor=none;align=left;verticalAlign=top;spacingLeft=4;spacingRight=4;overflow=hidden;rotatable=0;points=[[0,0.5],[1,0.5]];portConstraint=eastwest;whiteSpace=wrap;html=1;" vertex="1" parent="8yTgMBWg_TmCKIOZ0KKH-22">
          <mxGeometry y="182" width="140" height="26" as="geometry" />
        </mxCell>
        <mxCell id="8yTgMBWg_TmCKIOZ0KKH-32" value="Vote" style="swimlane;fontStyle=0;childLayout=stackLayout;horizontal=1;startSize=26;fillColor=none;horizontalStack=0;resizeParent=1;resizeParentMax=0;resizeLast=0;collapsible=1;marginBottom=0;whiteSpace=wrap;html=1;" vertex="1" parent="1">
          <mxGeometry x="390" y="640" width="140" height="130" as="geometry" />
        </mxCell>
        <mxCell id="8yTgMBWg_TmCKIOZ0KKH-36" value="- user: User" style="text;strokeColor=none;fillColor=none;align=left;verticalAlign=top;spacingLeft=4;spacingRight=4;overflow=hidden;rotatable=0;points=[[0,0.5],[1,0.5]];portConstraint=eastwest;whiteSpace=wrap;html=1;" vertex="1" parent="8yTgMBWg_TmCKIOZ0KKH-32">
          <mxGeometry y="26" width="140" height="26" as="geometry" />
        </mxCell>
        <mxCell id="8yTgMBWg_TmCKIOZ0KKH-37" value="- argument: Argument" style="text;strokeColor=none;fillColor=none;align=left;verticalAlign=top;spacingLeft=4;spacingRight=4;overflow=hidden;rotatable=0;points=[[0,0.5],[1,0.5]];portConstraint=eastwest;whiteSpace=wrap;html=1;" vertex="1" parent="8yTgMBWg_TmCKIOZ0KKH-32">
          <mxGeometry y="52" width="140" height="26" as="geometry" />
        </mxCell>
        <mxCell id="8yTgMBWg_TmCKIOZ0KKH-38" value="- type: Enum" style="text;strokeColor=none;fillColor=none;align=left;verticalAlign=top;spacingLeft=4;spacingRight=4;overflow=hidden;rotatable=0;points=[[0,0.5],[1,0.5]];portConstraint=eastwest;whiteSpace=wrap;html=1;" vertex="1" parent="8yTgMBWg_TmCKIOZ0KKH-32">
          <mxGeometry y="78" width="140" height="26" as="geometry" />
        </mxCell>
        <mxCell id="OPZZS9HK3-LfXARks0nw-3" value="- createdAt: DateTime" style="text;strokeColor=none;fillColor=none;align=left;verticalAlign=top;spacingLeft=4;spacingRight=4;overflow=hidden;rotatable=0;points=[[0,0.5],[1,0.5]];portConstraint=eastwest;whiteSpace=wrap;html=1;" vertex="1" parent="8yTgMBWg_TmCKIOZ0KKH-32">
          <mxGeometry y="104" width="140" height="26" as="geometry" />
        </mxCell>
        <mxCell id="8yTgMBWg_TmCKIOZ0KKH-40" value="Topic" style="swimlane;fontStyle=0;childLayout=stackLayout;horizontal=1;startSize=26;fillColor=none;horizontalStack=0;resizeParent=1;resizeParentMax=0;resizeLast=0;collapsible=1;marginBottom=0;whiteSpace=wrap;html=1;" vertex="1" parent="1">
          <mxGeometry x="85" y="40" width="140" height="130" as="geometry" />
        </mxCell>
        <mxCell id="8yTgMBWg_TmCKIOZ0KKH-41" value="- id: Int" style="text;strokeColor=none;fillColor=none;align=left;verticalAlign=top;spacingLeft=4;spacingRight=4;overflow=hidden;rotatable=0;points=[[0,0.5],[1,0.5]];portConstraint=eastwest;whiteSpace=wrap;html=1;" vertex="1" parent="8yTgMBWg_TmCKIOZ0KKH-40">
          <mxGeometry y="26" width="140" height="26" as="geometry" />
        </mxCell>
        <mxCell id="8yTgMBWg_TmCKIOZ0KKH-42" value="- name: String" style="text;strokeColor=none;fillColor=none;align=left;verticalAlign=top;spacingLeft=4;spacingRight=4;overflow=hidden;rotatable=0;points=[[0,0.5],[1,0.5]];portConstraint=eastwest;whiteSpace=wrap;html=1;" vertex="1" parent="8yTgMBWg_TmCKIOZ0KKH-40">
          <mxGeometry y="52" width="140" height="26" as="geometry" />
        </mxCell>
        <mxCell id="8yTgMBWg_TmCKIOZ0KKH-43" value="- takes: Take[]" style="text;strokeColor=none;fillColor=none;align=left;verticalAlign=top;spacingLeft=4;spacingRight=4;overflow=hidden;rotatable=0;points=[[0,0.5],[1,0.5]];portConstraint=eastwest;whiteSpace=wrap;html=1;" vertex="1" parent="8yTgMBWg_TmCKIOZ0KKH-40">
          <mxGeometry y="78" width="140" height="26" as="geometry" />
        </mxCell>
        <mxCell id="OPZZS9HK3-LfXARks0nw-6" value="- createdAt: DateTime" style="text;strokeColor=none;fillColor=none;align=left;verticalAlign=top;spacingLeft=4;spacingRight=4;overflow=hidden;rotatable=0;points=[[0,0.5],[1,0.5]];portConstraint=eastwest;whiteSpace=wrap;html=1;" vertex="1" parent="8yTgMBWg_TmCKIOZ0KKH-40">
          <mxGeometry y="104" width="140" height="26" as="geometry" />
        </mxCell>
        <mxCell id="8yTgMBWg_TmCKIOZ0KKH-47" value="Follow" style="swimlane;fontStyle=0;childLayout=stackLayout;horizontal=1;startSize=26;fillColor=none;horizontalStack=0;resizeParent=1;resizeParentMax=0;resizeLast=0;collapsible=1;marginBottom=0;whiteSpace=wrap;html=1;" vertex="1" parent="1">
          <mxGeometry x="85" y="640" width="140" height="104" as="geometry" />
        </mxCell>
        <mxCell id="8yTgMBWg_TmCKIOZ0KKH-50" value="- follower: User" style="text;strokeColor=none;fillColor=none;align=left;verticalAlign=top;spacingLeft=4;spacingRight=4;overflow=hidden;rotatable=0;points=[[0,0.5],[1,0.5]];portConstraint=eastwest;whiteSpace=wrap;html=1;" vertex="1" parent="8yTgMBWg_TmCKIOZ0KKH-47">
          <mxGeometry y="26" width="140" height="26" as="geometry" />
        </mxCell>
        <mxCell id="8yTgMBWg_TmCKIOZ0KKH-52" value="- followed: User" style="text;strokeColor=none;fillColor=none;align=left;verticalAlign=top;spacingLeft=4;spacingRight=4;overflow=hidden;rotatable=0;points=[[0,0.5],[1,0.5]];portConstraint=eastwest;whiteSpace=wrap;html=1;" vertex="1" parent="8yTgMBWg_TmCKIOZ0KKH-47">
          <mxGeometry y="52" width="140" height="26" as="geometry" />
        </mxCell>
        <mxCell id="OPZZS9HK3-LfXARks0nw-4" value="- createdAt: DateTime" style="text;strokeColor=none;fillColor=none;align=left;verticalAlign=top;spacingLeft=4;spacingRight=4;overflow=hidden;rotatable=0;points=[[0,0.5],[1,0.5]];portConstraint=eastwest;whiteSpace=wrap;html=1;" vertex="1" parent="8yTgMBWg_TmCKIOZ0KKH-47">
          <mxGeometry y="78" width="140" height="26" as="geometry" />
        </mxCell>
        <mxCell id="8yTgMBWg_TmCKIOZ0KKH-53" value="UserTakes" style="endArrow=open;html=1;endSize=12;startArrow=diamondThin;startSize=14;startFill=0;rounded=0;edgeStyle=orthogonalEdgeStyle;" edge="1" parent="1" source="8yTgMBWg_TmCKIOZ0KKH-20" target="8yTgMBWg_TmCKIOZ0KKH-4">
          <mxGeometry relative="1" as="geometry">
            <mxPoint x="320" y="440" as="sourcePoint" />
            <mxPoint x="400" y="670" as="targetPoint" />
          </mxGeometry>
        </mxCell>
        <mxCell id="8yTgMBWg_TmCKIOZ0KKH-54" value="0..n" style="edgeLabel;resizable=0;html=1;align=left;verticalAlign=top;" connectable="0" vertex="1" parent="8yTgMBWg_TmCKIOZ0KKH-53">
          <mxGeometry x="-1" relative="1" as="geometry" />
        </mxCell>
        <mxCell id="8yTgMBWg_TmCKIOZ0KKH-55" value="1" style="edgeLabel;resizable=0;html=1;align=right;verticalAlign=top;" connectable="0" vertex="1" parent="8yTgMBWg_TmCKIOZ0KKH-53">
          <mxGeometry x="1" relative="1" as="geometry" />
        </mxCell>
        <mxCell id="8yTgMBWg_TmCKIOZ0KKH-57" value="TakeArguments" style="endArrow=open;html=1;endSize=12;startArrow=diamondThin;startSize=14;startFill=1;edgeStyle=orthogonalEdgeStyle;rounded=0;" edge="1" parent="1" source="8yTgMBWg_TmCKIOZ0KKH-26" target="8yTgMBWg_TmCKIOZ0KKH-17">
          <mxGeometry relative="1" as="geometry">
            <mxPoint x="470" y="580" as="sourcePoint" />
            <mxPoint x="350" y="638" as="targetPoint" />
            <Array as="points">
              <mxPoint x="570" y="441" />
              <mxPoint x="570" y="209" />
            </Array>
          </mxGeometry>
        </mxCell>
        <mxCell id="8yTgMBWg_TmCKIOZ0KKH-58" value="0..n" style="edgeLabel;resizable=0;html=1;align=left;verticalAlign=top;" connectable="0" vertex="1" parent="8yTgMBWg_TmCKIOZ0KKH-57">
          <mxGeometry x="-1" relative="1" as="geometry" />
        </mxCell>
        <mxCell id="8yTgMBWg_TmCKIOZ0KKH-59" value="1" style="edgeLabel;resizable=0;html=1;align=right;verticalAlign=top;" connectable="0" vertex="1" parent="8yTgMBWg_TmCKIOZ0KKH-57">
          <mxGeometry x="1" relative="1" as="geometry" />
        </mxCell>
        <mxCell id="8yTgMBWg_TmCKIOZ0KKH-60" value="ArgumentVotes" style="endArrow=open;html=1;endSize=12;startArrow=diamondThin;startSize=14;startFill=1;edgeStyle=orthogonalEdgeStyle;rounded=0;" edge="1" parent="1" source="8yTgMBWg_TmCKIOZ0KKH-37" target="8yTgMBWg_TmCKIOZ0KKH-29">
          <mxGeometry relative="1" as="geometry">
            <mxPoint x="700" y="420" as="sourcePoint" />
            <mxPoint x="630" y="628" as="targetPoint" />
            <Array as="points">
              <mxPoint x="570" y="705" />
              <mxPoint x="570" y="519" />
            </Array>
          </mxGeometry>
        </mxCell>
        <mxCell id="8yTgMBWg_TmCKIOZ0KKH-61" value="0..n" style="edgeLabel;resizable=0;html=1;align=left;verticalAlign=top;" connectable="0" vertex="1" parent="8yTgMBWg_TmCKIOZ0KKH-60">
          <mxGeometry x="-1" relative="1" as="geometry" />
        </mxCell>
        <mxCell id="8yTgMBWg_TmCKIOZ0KKH-62" value="1" style="edgeLabel;resizable=0;html=1;align=right;verticalAlign=top;" connectable="0" vertex="1" parent="8yTgMBWg_TmCKIOZ0KKH-60">
          <mxGeometry x="1" relative="1" as="geometry" />
        </mxCell>
        <mxCell id="8yTgMBWg_TmCKIOZ0KKH-63" value="UserVotes" style="endArrow=open;html=1;endSize=12;startArrow=diamondThin;startSize=14;startFill=0;edgeStyle=orthogonalEdgeStyle;rounded=0;" edge="1" parent="1" source="8yTgMBWg_TmCKIOZ0KKH-36" target="8yTgMBWg_TmCKIOZ0KKH-7">
          <mxGeometry relative="1" as="geometry">
            <mxPoint x="550" y="311" as="sourcePoint" />
            <mxPoint x="240.72461998980975" y="600" as="targetPoint" />
          </mxGeometry>
        </mxCell>
        <mxCell id="8yTgMBWg_TmCKIOZ0KKH-64" value="0..n" style="edgeLabel;resizable=0;html=1;align=left;verticalAlign=top;" connectable="0" vertex="1" parent="8yTgMBWg_TmCKIOZ0KKH-63">
          <mxGeometry x="-1" relative="1" as="geometry" />
        </mxCell>
        <mxCell id="8yTgMBWg_TmCKIOZ0KKH-65" value="1" style="edgeLabel;resizable=0;html=1;align=right;verticalAlign=top;" connectable="0" vertex="1" parent="8yTgMBWg_TmCKIOZ0KKH-63">
          <mxGeometry x="1" relative="1" as="geometry" />
        </mxCell>
        <mxCell id="8yTgMBWg_TmCKIOZ0KKH-67" value="UserArguments" style="endArrow=open;html=1;endSize=12;startArrow=diamondThin;startSize=14;startFill=0;edgeStyle=orthogonalEdgeStyle;rounded=0;" edge="1" parent="1" source="8yTgMBWg_TmCKIOZ0KKH-25" target="8yTgMBWg_TmCKIOZ0KKH-6">
          <mxGeometry relative="1" as="geometry">
            <mxPoint x="310" y="275" as="sourcePoint" />
            <mxPoint x="240" y="483" as="targetPoint" />
            <Array as="points">
              <mxPoint x="310" y="415" />
              <mxPoint x="310" y="419" />
            </Array>
          </mxGeometry>
        </mxCell>
        <mxCell id="8yTgMBWg_TmCKIOZ0KKH-68" value="0..n" style="edgeLabel;resizable=0;html=1;align=left;verticalAlign=top;" connectable="0" vertex="1" parent="8yTgMBWg_TmCKIOZ0KKH-67">
          <mxGeometry x="-1" relative="1" as="geometry" />
        </mxCell>
        <mxCell id="8yTgMBWg_TmCKIOZ0KKH-69" value="1" style="edgeLabel;resizable=0;html=1;align=right;verticalAlign=top;" connectable="0" vertex="1" parent="8yTgMBWg_TmCKIOZ0KKH-67">
          <mxGeometry x="1" relative="1" as="geometry" />
        </mxCell>
        <mxCell id="8yTgMBWg_TmCKIOZ0KKH-71" value="FollowedTopics" style="endArrow=open;html=1;endSize=12;startArrow=diamondThin;startSize=14;startFill=0;rounded=0;edgeStyle=orthogonalEdgeStyle;" edge="1" parent="1" source="8yTgMBWg_TmCKIOZ0KKH-40" target="8yTgMBWg_TmCKIOZ0KKH-10">
          <mxGeometry x="-0.0006" relative="1" as="geometry">
            <mxPoint x="50" y="70" as="sourcePoint" />
            <mxPoint x="50" y="220" as="targetPoint" />
            <Array as="points">
              <mxPoint x="155" y="210" />
              <mxPoint x="40" y="210" />
              <mxPoint x="40" y="523" />
            </Array>
            <mxPoint as="offset" />
          </mxGeometry>
        </mxCell>
        <mxCell id="8yTgMBWg_TmCKIOZ0KKH-72" value="0..n" style="edgeLabel;resizable=0;html=1;align=left;verticalAlign=top;" connectable="0" vertex="1" parent="8yTgMBWg_TmCKIOZ0KKH-71">
          <mxGeometry x="-1" relative="1" as="geometry" />
        </mxCell>
        <mxCell id="8yTgMBWg_TmCKIOZ0KKH-73" value="0..n" style="edgeLabel;resizable=0;html=1;align=right;verticalAlign=top;" connectable="0" vertex="1" parent="8yTgMBWg_TmCKIOZ0KKH-71">
          <mxGeometry x="1" relative="1" as="geometry" />
        </mxCell>
        <mxCell id="8yTgMBWg_TmCKIOZ0KKH-74" value="TakeTopics" style="endArrow=diamondThin;html=1;endSize=12;startArrow=diamondThin;startSize=14;startFill=0;rounded=0;edgeStyle=orthogonalEdgeStyle;endFill=0;" edge="1" parent="1" source="8yTgMBWg_TmCKIOZ0KKH-16" target="8yTgMBWg_TmCKIOZ0KKH-40">
          <mxGeometry relative="1" as="geometry">
            <mxPoint x="680" y="500" as="sourcePoint" />
            <mxPoint x="240" y="613" as="targetPoint" />
            <Array as="points">
              <mxPoint x="270" y="183" />
              <mxPoint x="270" y="110" />
            </Array>
          </mxGeometry>
        </mxCell>
        <mxCell id="8yTgMBWg_TmCKIOZ0KKH-75" value="0..n" style="edgeLabel;resizable=0;html=1;align=left;verticalAlign=top;" connectable="0" vertex="1" parent="8yTgMBWg_TmCKIOZ0KKH-74">
          <mxGeometry x="-1" relative="1" as="geometry" />
        </mxCell>
        <mxCell id="8yTgMBWg_TmCKIOZ0KKH-76" value="0..n" style="edgeLabel;resizable=0;html=1;align=right;verticalAlign=top;" connectable="0" vertex="1" parent="8yTgMBWg_TmCKIOZ0KKH-74">
          <mxGeometry x="1" relative="1" as="geometry" />
        </mxCell>
        <mxCell id="8yTgMBWg_TmCKIOZ0KKH-79" value="UserFollows" style="endArrow=block;html=1;endSize=6;startArrow=block;startSize=6;startFill=1;edgeStyle=orthogonalEdgeStyle;rounded=0;endFill=1;" edge="1" parent="1" source="8yTgMBWg_TmCKIOZ0KKH-47" target="wck36eR80HzrzI6i-mt1-3">
          <mxGeometry relative="1" as="geometry">
            <mxPoint x="270" y="640" as="sourcePoint" />
            <mxPoint x="430" y="640" as="targetPoint" />
          </mxGeometry>
        </mxCell>
        <mxCell id="8yTgMBWg_TmCKIOZ0KKH-80" value="0..n" style="edgeLabel;resizable=0;html=1;align=left;verticalAlign=top;" connectable="0" vertex="1" parent="8yTgMBWg_TmCKIOZ0KKH-79">
          <mxGeometry x="-1" relative="1" as="geometry" />
        </mxCell>
        <mxCell id="8yTgMBWg_TmCKIOZ0KKH-81" value="0..n" style="edgeLabel;resizable=0;html=1;align=right;verticalAlign=top;" connectable="0" vertex="1" parent="8yTgMBWg_TmCKIOZ0KKH-79">
          <mxGeometry x="1" relative="1" as="geometry" />
        </mxCell>
      </root>
    </mxGraphModel>
  </diagram>
  <diagram id="R2lEEEUBdFMjLlhIrx00" name="debait_ER">
    <mxGraphModel dx="2269" dy="2560" grid="1" gridSize="10" guides="1" tooltips="1" connect="1" arrows="1" fold="1" page="1" pageScale="1" pageWidth="850" pageHeight="1100" math="0" shadow="0" extFonts="Permanent Marker^https://fonts.googleapis.com/css?family=Permanent+Marker">
      <root>
        <mxCell id="0" />
        <mxCell id="1" parent="0" />
        <mxCell id="szooOIBpPkEiRrql3_PG-1" value="" style="edgeStyle=entityRelationEdgeStyle;fontSize=12;html=1;endArrow=ERzeroToMany;startArrow=ERmandOne;rounded=0;" edge="1" parent="1" target="lBK-Lwxm5J-hL-O0BESu-127">
          <mxGeometry width="100" height="100" relative="1" as="geometry">
            <mxPoint x="790" y="45" as="sourcePoint" />
            <mxPoint x="1160" y="410" as="targetPoint" />
          </mxGeometry>
        </mxCell>
        <mxCell id="QVoJc7YLoi7SJxNaEA9z-1" value="Users" style="shape=table;startSize=30;container=1;collapsible=1;childLayout=tableLayout;fixedRows=1;rowLines=0;fontStyle=1;align=center;resizeLast=1;html=1;" vertex="1" parent="1">
          <mxGeometry x="40" y="-860" width="180" height="180" as="geometry" />
        </mxCell>
        <mxCell id="QVoJc7YLoi7SJxNaEA9z-2" value="" style="shape=tableRow;horizontal=0;startSize=0;swimlaneHead=0;swimlaneBody=0;fillColor=none;collapsible=0;dropTarget=0;points=[[0,0.5],[1,0.5]];portConstraint=eastwest;top=0;left=0;right=0;bottom=1;" vertex="1" parent="QVoJc7YLoi7SJxNaEA9z-1">
          <mxGeometry y="30" width="180" height="30" as="geometry" />
        </mxCell>
        <mxCell id="QVoJc7YLoi7SJxNaEA9z-3" value="PK" style="shape=partialRectangle;connectable=0;fillColor=none;top=0;left=0;bottom=0;right=0;fontStyle=1;overflow=hidden;whiteSpace=wrap;html=1;" vertex="1" parent="QVoJc7YLoi7SJxNaEA9z-2">
          <mxGeometry width="30" height="30" as="geometry">
            <mxRectangle width="30" height="30" as="alternateBounds" />
          </mxGeometry>
        </mxCell>
        <mxCell id="QVoJc7YLoi7SJxNaEA9z-4" value="id" style="shape=partialRectangle;connectable=0;fillColor=none;top=0;left=0;bottom=0;right=0;align=left;spacingLeft=6;fontStyle=5;overflow=hidden;whiteSpace=wrap;html=1;" vertex="1" parent="QVoJc7YLoi7SJxNaEA9z-2">
          <mxGeometry x="30" width="150" height="30" as="geometry">
            <mxRectangle width="150" height="30" as="alternateBounds" />
          </mxGeometry>
        </mxCell>
        <mxCell id="QVoJc7YLoi7SJxNaEA9z-5" value="" style="shape=tableRow;horizontal=0;startSize=0;swimlaneHead=0;swimlaneBody=0;fillColor=none;collapsible=0;dropTarget=0;points=[[0,0.5],[1,0.5]];portConstraint=eastwest;top=0;left=0;right=0;bottom=0;" vertex="1" parent="QVoJc7YLoi7SJxNaEA9z-1">
          <mxGeometry y="60" width="180" height="30" as="geometry" />
        </mxCell>
        <mxCell id="QVoJc7YLoi7SJxNaEA9z-6" value="" style="shape=partialRectangle;connectable=0;fillColor=none;top=0;left=0;bottom=0;right=0;editable=1;overflow=hidden;whiteSpace=wrap;html=1;" vertex="1" parent="QVoJc7YLoi7SJxNaEA9z-5">
          <mxGeometry width="30" height="30" as="geometry">
            <mxRectangle width="30" height="30" as="alternateBounds" />
          </mxGeometry>
        </mxCell>
        <mxCell id="QVoJc7YLoi7SJxNaEA9z-7" value="email" style="shape=partialRectangle;connectable=0;fillColor=none;top=0;left=0;bottom=0;right=0;align=left;spacingLeft=6;overflow=hidden;whiteSpace=wrap;html=1;" vertex="1" parent="QVoJc7YLoi7SJxNaEA9z-5">
          <mxGeometry x="30" width="150" height="30" as="geometry">
            <mxRectangle width="150" height="30" as="alternateBounds" />
          </mxGeometry>
        </mxCell>
        <mxCell id="QVoJc7YLoi7SJxNaEA9z-8" value="" style="shape=tableRow;horizontal=0;startSize=0;swimlaneHead=0;swimlaneBody=0;fillColor=none;collapsible=0;dropTarget=0;points=[[0,0.5],[1,0.5]];portConstraint=eastwest;top=0;left=0;right=0;bottom=0;" vertex="1" parent="QVoJc7YLoi7SJxNaEA9z-1">
          <mxGeometry y="90" width="180" height="30" as="geometry" />
        </mxCell>
        <mxCell id="QVoJc7YLoi7SJxNaEA9z-9" value="" style="shape=partialRectangle;connectable=0;fillColor=none;top=0;left=0;bottom=0;right=0;editable=1;overflow=hidden;whiteSpace=wrap;html=1;" vertex="1" parent="QVoJc7YLoi7SJxNaEA9z-8">
          <mxGeometry width="30" height="30" as="geometry">
            <mxRectangle width="30" height="30" as="alternateBounds" />
          </mxGeometry>
        </mxCell>
        <mxCell id="QVoJc7YLoi7SJxNaEA9z-10" value="username" style="shape=partialRectangle;connectable=0;fillColor=none;top=0;left=0;bottom=0;right=0;align=left;spacingLeft=6;overflow=hidden;whiteSpace=wrap;html=1;" vertex="1" parent="QVoJc7YLoi7SJxNaEA9z-8">
          <mxGeometry x="30" width="150" height="30" as="geometry">
            <mxRectangle width="150" height="30" as="alternateBounds" />
          </mxGeometry>
        </mxCell>
        <mxCell id="QVoJc7YLoi7SJxNaEA9z-11" value="" style="shape=tableRow;horizontal=0;startSize=0;swimlaneHead=0;swimlaneBody=0;fillColor=none;collapsible=0;dropTarget=0;points=[[0,0.5],[1,0.5]];portConstraint=eastwest;top=0;left=0;right=0;bottom=0;" vertex="1" parent="QVoJc7YLoi7SJxNaEA9z-1">
          <mxGeometry y="120" width="180" height="30" as="geometry" />
        </mxCell>
        <mxCell id="QVoJc7YLoi7SJxNaEA9z-12" value="" style="shape=partialRectangle;connectable=0;fillColor=none;top=0;left=0;bottom=0;right=0;editable=1;overflow=hidden;whiteSpace=wrap;html=1;" vertex="1" parent="QVoJc7YLoi7SJxNaEA9z-11">
          <mxGeometry width="30" height="30" as="geometry">
            <mxRectangle width="30" height="30" as="alternateBounds" />
          </mxGeometry>
        </mxCell>
        <mxCell id="QVoJc7YLoi7SJxNaEA9z-13" value="password" style="shape=partialRectangle;connectable=0;fillColor=none;top=0;left=0;bottom=0;right=0;align=left;spacingLeft=6;overflow=hidden;whiteSpace=wrap;html=1;" vertex="1" parent="QVoJc7YLoi7SJxNaEA9z-11">
          <mxGeometry x="30" width="150" height="30" as="geometry">
            <mxRectangle width="150" height="30" as="alternateBounds" />
          </mxGeometry>
        </mxCell>
        <mxCell id="QVoJc7YLoi7SJxNaEA9z-14" value="" style="shape=tableRow;horizontal=0;startSize=0;swimlaneHead=0;swimlaneBody=0;fillColor=none;collapsible=0;dropTarget=0;points=[[0,0.5],[1,0.5]];portConstraint=eastwest;top=0;left=0;right=0;bottom=0;" vertex="1" parent="QVoJc7YLoi7SJxNaEA9z-1">
          <mxGeometry y="150" width="180" height="30" as="geometry" />
        </mxCell>
        <mxCell id="QVoJc7YLoi7SJxNaEA9z-15" value="" style="shape=partialRectangle;connectable=0;fillColor=none;top=0;left=0;bottom=0;right=0;editable=1;overflow=hidden;whiteSpace=wrap;html=1;" vertex="1" parent="QVoJc7YLoi7SJxNaEA9z-14">
          <mxGeometry width="30" height="30" as="geometry">
            <mxRectangle width="30" height="30" as="alternateBounds" />
          </mxGeometry>
        </mxCell>
        <mxCell id="QVoJc7YLoi7SJxNaEA9z-16" value="createdAt" style="shape=partialRectangle;connectable=0;fillColor=none;top=0;left=0;bottom=0;right=0;align=left;spacingLeft=6;overflow=hidden;whiteSpace=wrap;html=1;" vertex="1" parent="QVoJc7YLoi7SJxNaEA9z-14">
          <mxGeometry x="30" width="150" height="30" as="geometry">
            <mxRectangle width="150" height="30" as="alternateBounds" />
          </mxGeometry>
        </mxCell>
        <mxCell id="QVoJc7YLoi7SJxNaEA9z-17" value="Topics" style="shape=table;startSize=30;container=1;collapsible=1;childLayout=tableLayout;fixedRows=1;rowLines=0;fontStyle=1;align=center;resizeLast=1;html=1;" vertex="1" parent="1">
          <mxGeometry x="40" y="-430" width="180" height="120" as="geometry" />
        </mxCell>
        <mxCell id="QVoJc7YLoi7SJxNaEA9z-18" value="" style="shape=tableRow;horizontal=0;startSize=0;swimlaneHead=0;swimlaneBody=0;fillColor=none;collapsible=0;dropTarget=0;points=[[0,0.5],[1,0.5]];portConstraint=eastwest;top=0;left=0;right=0;bottom=1;" vertex="1" parent="QVoJc7YLoi7SJxNaEA9z-17">
          <mxGeometry y="30" width="180" height="30" as="geometry" />
        </mxCell>
        <mxCell id="QVoJc7YLoi7SJxNaEA9z-19" value="PK" style="shape=partialRectangle;connectable=0;fillColor=none;top=0;left=0;bottom=0;right=0;fontStyle=1;overflow=hidden;whiteSpace=wrap;html=1;" vertex="1" parent="QVoJc7YLoi7SJxNaEA9z-18">
          <mxGeometry width="30" height="30" as="geometry">
            <mxRectangle width="30" height="30" as="alternateBounds" />
          </mxGeometry>
        </mxCell>
        <mxCell id="QVoJc7YLoi7SJxNaEA9z-20" value="id" style="shape=partialRectangle;connectable=0;fillColor=none;top=0;left=0;bottom=0;right=0;align=left;spacingLeft=6;fontStyle=5;overflow=hidden;whiteSpace=wrap;html=1;" vertex="1" parent="QVoJc7YLoi7SJxNaEA9z-18">
          <mxGeometry x="30" width="150" height="30" as="geometry">
            <mxRectangle width="150" height="30" as="alternateBounds" />
          </mxGeometry>
        </mxCell>
        <mxCell id="QVoJc7YLoi7SJxNaEA9z-21" value="" style="shape=tableRow;horizontal=0;startSize=0;swimlaneHead=0;swimlaneBody=0;fillColor=none;collapsible=0;dropTarget=0;points=[[0,0.5],[1,0.5]];portConstraint=eastwest;top=0;left=0;right=0;bottom=0;" vertex="1" parent="QVoJc7YLoi7SJxNaEA9z-17">
          <mxGeometry y="60" width="180" height="30" as="geometry" />
        </mxCell>
        <mxCell id="QVoJc7YLoi7SJxNaEA9z-22" value="" style="shape=partialRectangle;connectable=0;fillColor=none;top=0;left=0;bottom=0;right=0;editable=1;overflow=hidden;whiteSpace=wrap;html=1;" vertex="1" parent="QVoJc7YLoi7SJxNaEA9z-21">
          <mxGeometry width="30" height="30" as="geometry">
            <mxRectangle width="30" height="30" as="alternateBounds" />
          </mxGeometry>
        </mxCell>
        <mxCell id="QVoJc7YLoi7SJxNaEA9z-23" value="name" style="shape=partialRectangle;connectable=0;fillColor=none;top=0;left=0;bottom=0;right=0;align=left;spacingLeft=6;overflow=hidden;whiteSpace=wrap;html=1;" vertex="1" parent="QVoJc7YLoi7SJxNaEA9z-21">
          <mxGeometry x="30" width="150" height="30" as="geometry">
            <mxRectangle width="150" height="30" as="alternateBounds" />
          </mxGeometry>
        </mxCell>
        <mxCell id="QVoJc7YLoi7SJxNaEA9z-24" value="" style="shape=tableRow;horizontal=0;startSize=0;swimlaneHead=0;swimlaneBody=0;fillColor=none;collapsible=0;dropTarget=0;points=[[0,0.5],[1,0.5]];portConstraint=eastwest;top=0;left=0;right=0;bottom=0;" vertex="1" parent="QVoJc7YLoi7SJxNaEA9z-17">
          <mxGeometry y="90" width="180" height="30" as="geometry" />
        </mxCell>
        <mxCell id="QVoJc7YLoi7SJxNaEA9z-25" value="" style="shape=partialRectangle;connectable=0;fillColor=none;top=0;left=0;bottom=0;right=0;editable=1;overflow=hidden;whiteSpace=wrap;html=1;" vertex="1" parent="QVoJc7YLoi7SJxNaEA9z-24">
          <mxGeometry width="30" height="30" as="geometry">
            <mxRectangle width="30" height="30" as="alternateBounds" />
          </mxGeometry>
        </mxCell>
        <mxCell id="QVoJc7YLoi7SJxNaEA9z-26" value="createdAt" style="shape=partialRectangle;connectable=0;fillColor=none;top=0;left=0;bottom=0;right=0;align=left;spacingLeft=6;overflow=hidden;whiteSpace=wrap;html=1;" vertex="1" parent="QVoJc7YLoi7SJxNaEA9z-24">
          <mxGeometry x="30" width="150" height="30" as="geometry">
            <mxRectangle width="150" height="30" as="alternateBounds" />
          </mxGeometry>
        </mxCell>
        <mxCell id="QVoJc7YLoi7SJxNaEA9z-27" value="Takes" style="shape=table;startSize=30;container=1;collapsible=1;childLayout=tableLayout;fixedRows=1;rowLines=0;fontStyle=1;align=center;resizeLast=1;html=1;" vertex="1" parent="1">
          <mxGeometry x="380" y="-1060" width="180" height="210" as="geometry" />
        </mxCell>
        <mxCell id="QVoJc7YLoi7SJxNaEA9z-28" value="" style="shape=tableRow;horizontal=0;startSize=0;swimlaneHead=0;swimlaneBody=0;fillColor=none;collapsible=0;dropTarget=0;points=[[0,0.5],[1,0.5]];portConstraint=eastwest;top=0;left=0;right=0;bottom=1;" vertex="1" parent="QVoJc7YLoi7SJxNaEA9z-27">
          <mxGeometry y="30" width="180" height="30" as="geometry" />
        </mxCell>
        <mxCell id="QVoJc7YLoi7SJxNaEA9z-29" value="PK" style="shape=partialRectangle;connectable=0;fillColor=none;top=0;left=0;bottom=0;right=0;fontStyle=1;overflow=hidden;whiteSpace=wrap;html=1;" vertex="1" parent="QVoJc7YLoi7SJxNaEA9z-28">
          <mxGeometry width="30" height="30" as="geometry">
            <mxRectangle width="30" height="30" as="alternateBounds" />
          </mxGeometry>
        </mxCell>
        <mxCell id="QVoJc7YLoi7SJxNaEA9z-30" value="id" style="shape=partialRectangle;connectable=0;fillColor=none;top=0;left=0;bottom=0;right=0;align=left;spacingLeft=6;fontStyle=5;overflow=hidden;whiteSpace=wrap;html=1;" vertex="1" parent="QVoJc7YLoi7SJxNaEA9z-28">
          <mxGeometry x="30" width="150" height="30" as="geometry">
            <mxRectangle width="150" height="30" as="alternateBounds" />
          </mxGeometry>
        </mxCell>
        <mxCell id="QVoJc7YLoi7SJxNaEA9z-31" value="" style="shape=tableRow;horizontal=0;startSize=0;swimlaneHead=0;swimlaneBody=0;fillColor=none;collapsible=0;dropTarget=0;points=[[0,0.5],[1,0.5]];portConstraint=eastwest;top=0;left=0;right=0;bottom=0;" vertex="1" parent="QVoJc7YLoi7SJxNaEA9z-27">
          <mxGeometry y="60" width="180" height="30" as="geometry" />
        </mxCell>
        <mxCell id="QVoJc7YLoi7SJxNaEA9z-32" value="" style="shape=partialRectangle;connectable=0;fillColor=none;top=0;left=0;bottom=0;right=0;editable=1;overflow=hidden;whiteSpace=wrap;html=1;" vertex="1" parent="QVoJc7YLoi7SJxNaEA9z-31">
          <mxGeometry width="30" height="30" as="geometry">
            <mxRectangle width="30" height="30" as="alternateBounds" />
          </mxGeometry>
        </mxCell>
        <mxCell id="QVoJc7YLoi7SJxNaEA9z-33" value="authorId" style="shape=partialRectangle;connectable=0;fillColor=none;top=0;left=0;bottom=0;right=0;align=left;spacingLeft=6;overflow=hidden;whiteSpace=wrap;html=1;" vertex="1" parent="QVoJc7YLoi7SJxNaEA9z-31">
          <mxGeometry x="30" width="150" height="30" as="geometry">
            <mxRectangle width="150" height="30" as="alternateBounds" />
          </mxGeometry>
        </mxCell>
        <mxCell id="QVoJc7YLoi7SJxNaEA9z-34" value="" style="shape=tableRow;horizontal=0;startSize=0;swimlaneHead=0;swimlaneBody=0;fillColor=none;collapsible=0;dropTarget=0;points=[[0,0.5],[1,0.5]];portConstraint=eastwest;top=0;left=0;right=0;bottom=0;" vertex="1" parent="QVoJc7YLoi7SJxNaEA9z-27">
          <mxGeometry y="90" width="180" height="30" as="geometry" />
        </mxCell>
        <mxCell id="QVoJc7YLoi7SJxNaEA9z-35" value="" style="shape=partialRectangle;connectable=0;fillColor=none;top=0;left=0;bottom=0;right=0;editable=1;overflow=hidden;whiteSpace=wrap;html=1;" vertex="1" parent="QVoJc7YLoi7SJxNaEA9z-34">
          <mxGeometry width="30" height="30" as="geometry">
            <mxRectangle width="30" height="30" as="alternateBounds" />
          </mxGeometry>
        </mxCell>
        <mxCell id="QVoJc7YLoi7SJxNaEA9z-36" value="status" style="shape=partialRectangle;connectable=0;fillColor=none;top=0;left=0;bottom=0;right=0;align=left;spacingLeft=6;overflow=hidden;whiteSpace=wrap;html=1;" vertex="1" parent="QVoJc7YLoi7SJxNaEA9z-34">
          <mxGeometry x="30" width="150" height="30" as="geometry">
            <mxRectangle width="150" height="30" as="alternateBounds" />
          </mxGeometry>
        </mxCell>
        <mxCell id="QVoJc7YLoi7SJxNaEA9z-37" value="" style="shape=tableRow;horizontal=0;startSize=0;swimlaneHead=0;swimlaneBody=0;fillColor=none;collapsible=0;dropTarget=0;points=[[0,0.5],[1,0.5]];portConstraint=eastwest;top=0;left=0;right=0;bottom=0;" vertex="1" parent="QVoJc7YLoi7SJxNaEA9z-27">
          <mxGeometry y="120" width="180" height="30" as="geometry" />
        </mxCell>
        <mxCell id="QVoJc7YLoi7SJxNaEA9z-38" value="" style="shape=partialRectangle;connectable=0;fillColor=none;top=0;left=0;bottom=0;right=0;editable=1;overflow=hidden;whiteSpace=wrap;html=1;" vertex="1" parent="QVoJc7YLoi7SJxNaEA9z-37">
          <mxGeometry width="30" height="30" as="geometry">
            <mxRectangle width="30" height="30" as="alternateBounds" />
          </mxGeometry>
        </mxCell>
        <mxCell id="QVoJc7YLoi7SJxNaEA9z-39" value="content" style="shape=partialRectangle;connectable=0;fillColor=none;top=0;left=0;bottom=0;right=0;align=left;spacingLeft=6;overflow=hidden;whiteSpace=wrap;html=1;" vertex="1" parent="QVoJc7YLoi7SJxNaEA9z-37">
          <mxGeometry x="30" width="150" height="30" as="geometry">
            <mxRectangle width="150" height="30" as="alternateBounds" />
          </mxGeometry>
        </mxCell>
        <mxCell id="QVoJc7YLoi7SJxNaEA9z-40" value="" style="shape=tableRow;horizontal=0;startSize=0;swimlaneHead=0;swimlaneBody=0;fillColor=none;collapsible=0;dropTarget=0;points=[[0,0.5],[1,0.5]];portConstraint=eastwest;top=0;left=0;right=0;bottom=0;" vertex="1" parent="QVoJc7YLoi7SJxNaEA9z-27">
          <mxGeometry y="150" width="180" height="30" as="geometry" />
        </mxCell>
        <mxCell id="QVoJc7YLoi7SJxNaEA9z-41" value="" style="shape=partialRectangle;connectable=0;fillColor=none;top=0;left=0;bottom=0;right=0;editable=1;overflow=hidden;whiteSpace=wrap;html=1;" vertex="1" parent="QVoJc7YLoi7SJxNaEA9z-40">
          <mxGeometry width="30" height="30" as="geometry">
            <mxRectangle width="30" height="30" as="alternateBounds" />
          </mxGeometry>
        </mxCell>
        <mxCell id="QVoJc7YLoi7SJxNaEA9z-42" value="createdAt" style="shape=partialRectangle;connectable=0;fillColor=none;top=0;left=0;bottom=0;right=0;align=left;spacingLeft=6;overflow=hidden;whiteSpace=wrap;html=1;" vertex="1" parent="QVoJc7YLoi7SJxNaEA9z-40">
          <mxGeometry x="30" width="150" height="30" as="geometry">
            <mxRectangle width="150" height="30" as="alternateBounds" />
          </mxGeometry>
        </mxCell>
        <mxCell id="QVoJc7YLoi7SJxNaEA9z-43" value="" style="shape=tableRow;horizontal=0;startSize=0;swimlaneHead=0;swimlaneBody=0;fillColor=none;collapsible=0;dropTarget=0;points=[[0,0.5],[1,0.5]];portConstraint=eastwest;top=0;left=0;right=0;bottom=0;" vertex="1" parent="QVoJc7YLoi7SJxNaEA9z-27">
          <mxGeometry y="180" width="180" height="30" as="geometry" />
        </mxCell>
        <mxCell id="QVoJc7YLoi7SJxNaEA9z-44" value="" style="shape=partialRectangle;connectable=0;fillColor=none;top=0;left=0;bottom=0;right=0;editable=1;overflow=hidden;whiteSpace=wrap;html=1;" vertex="1" parent="QVoJc7YLoi7SJxNaEA9z-43">
          <mxGeometry width="30" height="30" as="geometry">
            <mxRectangle width="30" height="30" as="alternateBounds" />
          </mxGeometry>
        </mxCell>
        <mxCell id="QVoJc7YLoi7SJxNaEA9z-45" value="closedAt" style="shape=partialRectangle;connectable=0;fillColor=none;top=0;left=0;bottom=0;right=0;align=left;spacingLeft=6;overflow=hidden;whiteSpace=wrap;html=1;" vertex="1" parent="QVoJc7YLoi7SJxNaEA9z-43">
          <mxGeometry x="30" width="150" height="30" as="geometry">
            <mxRectangle width="150" height="30" as="alternateBounds" />
          </mxGeometry>
        </mxCell>
        <mxCell id="QVoJc7YLoi7SJxNaEA9z-46" value="UserTopics" style="shape=table;startSize=30;container=1;collapsible=1;childLayout=tableLayout;fixedRows=1;rowLines=0;fontStyle=1;align=center;resizeLast=1;html=1;whiteSpace=wrap;" vertex="1" parent="1">
          <mxGeometry x="40" y="-600" width="180" height="90" as="geometry" />
        </mxCell>
        <mxCell id="QVoJc7YLoi7SJxNaEA9z-47" value="" style="shape=tableRow;horizontal=0;startSize=0;swimlaneHead=0;swimlaneBody=0;fillColor=none;collapsible=0;dropTarget=0;points=[[0,0.5],[1,0.5]];portConstraint=eastwest;top=0;left=0;right=0;bottom=0;html=1;" vertex="1" parent="QVoJc7YLoi7SJxNaEA9z-46">
          <mxGeometry y="30" width="180" height="30" as="geometry" />
        </mxCell>
        <mxCell id="QVoJc7YLoi7SJxNaEA9z-48" value="PK,FK1" style="shape=partialRectangle;connectable=0;fillColor=none;top=0;left=0;bottom=0;right=0;fontStyle=1;overflow=hidden;html=1;whiteSpace=wrap;" vertex="1" parent="QVoJc7YLoi7SJxNaEA9z-47">
          <mxGeometry width="60" height="30" as="geometry">
            <mxRectangle width="60" height="30" as="alternateBounds" />
          </mxGeometry>
        </mxCell>
        <mxCell id="QVoJc7YLoi7SJxNaEA9z-49" value="userId" style="shape=partialRectangle;connectable=0;fillColor=none;top=0;left=0;bottom=0;right=0;align=left;spacingLeft=6;fontStyle=5;overflow=hidden;html=1;whiteSpace=wrap;" vertex="1" parent="QVoJc7YLoi7SJxNaEA9z-47">
          <mxGeometry x="60" width="120" height="30" as="geometry">
            <mxRectangle width="120" height="30" as="alternateBounds" />
          </mxGeometry>
        </mxCell>
        <mxCell id="QVoJc7YLoi7SJxNaEA9z-50" value="" style="shape=tableRow;horizontal=0;startSize=0;swimlaneHead=0;swimlaneBody=0;fillColor=none;collapsible=0;dropTarget=0;points=[[0,0.5],[1,0.5]];portConstraint=eastwest;top=0;left=0;right=0;bottom=1;html=1;" vertex="1" parent="QVoJc7YLoi7SJxNaEA9z-46">
          <mxGeometry y="60" width="180" height="30" as="geometry" />
        </mxCell>
        <mxCell id="QVoJc7YLoi7SJxNaEA9z-51" value="PK,FK2" style="shape=partialRectangle;connectable=0;fillColor=none;top=0;left=0;bottom=0;right=0;fontStyle=1;overflow=hidden;html=1;whiteSpace=wrap;" vertex="1" parent="QVoJc7YLoi7SJxNaEA9z-50">
          <mxGeometry width="60" height="30" as="geometry">
            <mxRectangle width="60" height="30" as="alternateBounds" />
          </mxGeometry>
        </mxCell>
        <mxCell id="QVoJc7YLoi7SJxNaEA9z-52" value="TopicId" style="shape=partialRectangle;connectable=0;fillColor=none;top=0;left=0;bottom=0;right=0;align=left;spacingLeft=6;fontStyle=5;overflow=hidden;html=1;whiteSpace=wrap;" vertex="1" parent="QVoJc7YLoi7SJxNaEA9z-50">
          <mxGeometry x="60" width="120" height="30" as="geometry">
            <mxRectangle width="120" height="30" as="alternateBounds" />
          </mxGeometry>
        </mxCell>
        <mxCell id="QVoJc7YLoi7SJxNaEA9z-53" value="" style="edgeStyle=entityRelationEdgeStyle;fontSize=12;html=1;endArrow=ERzeroToMany;startArrow=ERmandOne;rounded=0;" edge="1" parent="1" source="QVoJc7YLoi7SJxNaEA9z-2" target="QVoJc7YLoi7SJxNaEA9z-31">
          <mxGeometry width="100" height="100" relative="1" as="geometry">
            <mxPoint x="270" y="-620" as="sourcePoint" />
            <mxPoint x="370" y="-568" as="targetPoint" />
          </mxGeometry>
        </mxCell>
        <mxCell id="QVoJc7YLoi7SJxNaEA9z-54" value="" style="edgeStyle=entityRelationEdgeStyle;fontSize=12;html=1;endArrow=ERzeroToMany;startArrow=ERmandOne;rounded=0;" edge="1" parent="1" source="QVoJc7YLoi7SJxNaEA9z-28" target="QVoJc7YLoi7SJxNaEA9z-87">
          <mxGeometry width="100" height="100" relative="1" as="geometry">
            <mxPoint x="610" y="-740" as="sourcePoint" />
            <mxPoint x="920" y="-860" as="targetPoint" />
          </mxGeometry>
        </mxCell>
        <mxCell id="QVoJc7YLoi7SJxNaEA9z-55" value="" style="edgeStyle=entityRelationEdgeStyle;fontSize=12;html=1;endArrow=ERzeroToMany;startArrow=ERmandOne;rounded=0;" edge="1" parent="1" source="QVoJc7YLoi7SJxNaEA9z-2" target="QVoJc7YLoi7SJxNaEA9z-90">
          <mxGeometry width="100" height="100" relative="1" as="geometry">
            <mxPoint x="490" y="-590" as="sourcePoint" />
            <mxPoint x="930" y="-825" as="targetPoint" />
          </mxGeometry>
        </mxCell>
        <mxCell id="QVoJc7YLoi7SJxNaEA9z-56" value="" style="edgeStyle=entityRelationEdgeStyle;fontSize=12;html=1;endArrow=ERzeroToMany;startArrow=ERmandOne;rounded=0;" edge="1" parent="1" source="QVoJc7YLoi7SJxNaEA9z-2" target="QVoJc7YLoi7SJxNaEA9z-64">
          <mxGeometry width="100" height="100" relative="1" as="geometry">
            <mxPoint x="230" y="-805" as="sourcePoint" />
            <mxPoint x="700" y="-525" as="targetPoint" />
          </mxGeometry>
        </mxCell>
        <mxCell id="QVoJc7YLoi7SJxNaEA9z-57" value="Votes" style="shape=table;startSize=30;container=1;collapsible=1;childLayout=tableLayout;fixedRows=1;rowLines=0;fontStyle=1;align=center;resizeLast=1;html=1;whiteSpace=wrap;" vertex="1" parent="1">
          <mxGeometry x="380" y="-560" width="180" height="150" as="geometry" />
        </mxCell>
        <mxCell id="QVoJc7YLoi7SJxNaEA9z-58" value="" style="shape=tableRow;horizontal=0;startSize=0;swimlaneHead=0;swimlaneBody=0;fillColor=none;collapsible=0;dropTarget=0;points=[[0,0.5],[1,0.5]];portConstraint=eastwest;top=0;left=0;right=0;bottom=0;html=1;" vertex="1" parent="QVoJc7YLoi7SJxNaEA9z-57">
          <mxGeometry y="30" width="180" height="30" as="geometry" />
        </mxCell>
        <mxCell id="QVoJc7YLoi7SJxNaEA9z-59" value="&lt;b&gt;PK,FK1&lt;/b&gt;" style="shape=partialRectangle;connectable=0;fillColor=none;top=0;left=0;bottom=0;right=0;editable=1;overflow=hidden;html=1;whiteSpace=wrap;" vertex="1" parent="QVoJc7YLoi7SJxNaEA9z-58">
          <mxGeometry width="60" height="30" as="geometry">
            <mxRectangle width="60" height="30" as="alternateBounds" />
          </mxGeometry>
        </mxCell>
        <mxCell id="QVoJc7YLoi7SJxNaEA9z-60" value="&lt;b&gt;voterId&lt;/b&gt;" style="shape=partialRectangle;connectable=0;fillColor=none;top=0;left=0;bottom=0;right=0;align=left;spacingLeft=6;overflow=hidden;html=1;whiteSpace=wrap;strokeColor=default;" vertex="1" parent="QVoJc7YLoi7SJxNaEA9z-58">
          <mxGeometry x="60" width="120" height="30" as="geometry">
            <mxRectangle width="120" height="30" as="alternateBounds" />
          </mxGeometry>
        </mxCell>
        <mxCell id="QVoJc7YLoi7SJxNaEA9z-61" value="" style="shape=tableRow;horizontal=0;startSize=0;swimlaneHead=0;swimlaneBody=0;fillColor=none;collapsible=0;dropTarget=0;points=[[0,0.5],[1,0.5]];portConstraint=eastwest;top=0;left=0;right=0;bottom=0;html=1;" vertex="1" parent="QVoJc7YLoi7SJxNaEA9z-57">
          <mxGeometry y="60" width="180" height="30" as="geometry" />
        </mxCell>
        <mxCell id="QVoJc7YLoi7SJxNaEA9z-62" value="PK,FK2" style="shape=partialRectangle;connectable=0;fillColor=none;top=0;left=0;bottom=0;right=0;fontStyle=1;overflow=hidden;html=1;whiteSpace=wrap;" vertex="1" parent="QVoJc7YLoi7SJxNaEA9z-61">
          <mxGeometry width="60" height="30" as="geometry">
            <mxRectangle width="60" height="30" as="alternateBounds" />
          </mxGeometry>
        </mxCell>
        <mxCell id="QVoJc7YLoi7SJxNaEA9z-63" value="takeId" style="shape=partialRectangle;connectable=0;fillColor=none;top=0;left=0;bottom=0;right=0;align=left;spacingLeft=6;fontStyle=5;overflow=hidden;html=1;whiteSpace=wrap;" vertex="1" parent="QVoJc7YLoi7SJxNaEA9z-61">
          <mxGeometry x="60" width="120" height="30" as="geometry">
            <mxRectangle width="120" height="30" as="alternateBounds" />
          </mxGeometry>
        </mxCell>
        <mxCell id="QVoJc7YLoi7SJxNaEA9z-64" value="" style="shape=tableRow;horizontal=0;startSize=0;swimlaneHead=0;swimlaneBody=0;fillColor=none;collapsible=0;dropTarget=0;points=[[0,0.5],[1,0.5]];portConstraint=eastwest;top=0;left=0;right=0;bottom=1;html=1;strokeColor=default;swimlaneFillColor=none;" vertex="1" parent="QVoJc7YLoi7SJxNaEA9z-57">
          <mxGeometry y="90" width="180" height="30" as="geometry" />
        </mxCell>
        <mxCell id="QVoJc7YLoi7SJxNaEA9z-65" value="PK,FK3" style="shape=partialRectangle;connectable=0;fillColor=none;top=0;left=0;bottom=0;right=0;fontStyle=1;overflow=hidden;html=1;whiteSpace=wrap;" vertex="1" parent="QVoJc7YLoi7SJxNaEA9z-64">
          <mxGeometry width="60" height="30" as="geometry">
            <mxRectangle width="60" height="30" as="alternateBounds" />
          </mxGeometry>
        </mxCell>
        <mxCell id="QVoJc7YLoi7SJxNaEA9z-66" value="argumentAuthorId" style="shape=partialRectangle;connectable=0;fillColor=none;top=0;left=0;bottom=0;right=0;align=left;spacingLeft=6;fontStyle=5;overflow=hidden;html=1;whiteSpace=wrap;" vertex="1" parent="QVoJc7YLoi7SJxNaEA9z-64">
          <mxGeometry x="60" width="120" height="30" as="geometry">
            <mxRectangle width="120" height="30" as="alternateBounds" />
          </mxGeometry>
        </mxCell>
        <mxCell id="QVoJc7YLoi7SJxNaEA9z-67" value="" style="shape=tableRow;horizontal=0;startSize=0;swimlaneHead=0;swimlaneBody=0;fillColor=none;collapsible=0;dropTarget=0;points=[[0,0.5],[1,0.5]];portConstraint=eastwest;top=0;left=0;right=0;bottom=0;html=1;" vertex="1" parent="QVoJc7YLoi7SJxNaEA9z-57">
          <mxGeometry y="120" width="180" height="30" as="geometry" />
        </mxCell>
        <mxCell id="QVoJc7YLoi7SJxNaEA9z-68" value="" style="shape=partialRectangle;connectable=0;fillColor=none;top=0;left=0;bottom=0;right=0;editable=1;overflow=hidden;html=1;whiteSpace=wrap;" vertex="1" parent="QVoJc7YLoi7SJxNaEA9z-67">
          <mxGeometry width="60" height="30" as="geometry">
            <mxRectangle width="60" height="30" as="alternateBounds" />
          </mxGeometry>
        </mxCell>
        <mxCell id="QVoJc7YLoi7SJxNaEA9z-69" value="createdAt" style="shape=partialRectangle;connectable=0;fillColor=none;top=0;left=0;bottom=0;right=0;align=left;spacingLeft=6;overflow=hidden;html=1;whiteSpace=wrap;" vertex="1" parent="QVoJc7YLoi7SJxNaEA9z-67">
          <mxGeometry x="60" width="120" height="30" as="geometry">
            <mxRectangle width="120" height="30" as="alternateBounds" />
          </mxGeometry>
        </mxCell>
        <mxCell id="QVoJc7YLoi7SJxNaEA9z-70" value="" style="edgeStyle=entityRelationEdgeStyle;fontSize=12;html=1;endArrow=ERzeroToMany;startArrow=ERmandOne;rounded=0;" edge="1" parent="1" source="QVoJc7YLoi7SJxNaEA9z-2" target="QVoJc7YLoi7SJxNaEA9z-58">
          <mxGeometry width="100" height="100" relative="1" as="geometry">
            <mxPoint x="230" y="-805" as="sourcePoint" />
            <mxPoint x="720" y="-475" as="targetPoint" />
            <Array as="points">
              <mxPoint x="460" y="-750" />
              <mxPoint x="450" y="-710" />
              <mxPoint x="380" y="-650" />
            </Array>
          </mxGeometry>
        </mxCell>
        <mxCell id="QVoJc7YLoi7SJxNaEA9z-71" value="" style="edgeStyle=entityRelationEdgeStyle;fontSize=12;html=1;endArrow=ERzeroToMany;startArrow=ERmandOne;rounded=0;" edge="1" parent="1" source="QVoJc7YLoi7SJxNaEA9z-28" target="QVoJc7YLoi7SJxNaEA9z-61">
          <mxGeometry width="100" height="100" relative="1" as="geometry">
            <mxPoint x="570" y="-965" as="sourcePoint" />
            <mxPoint x="640" y="-725" as="targetPoint" />
          </mxGeometry>
        </mxCell>
        <mxCell id="QVoJc7YLoi7SJxNaEA9z-72" value="" style="edgeStyle=entityRelationEdgeStyle;fontSize=12;html=1;endArrow=ERzeroToMany;startArrow=ERmandOne;rounded=0;" edge="1" parent="1" source="QVoJc7YLoi7SJxNaEA9z-2" target="QVoJc7YLoi7SJxNaEA9z-47">
          <mxGeometry width="100" height="100" relative="1" as="geometry">
            <mxPoint x="340" y="-600" as="sourcePoint" />
            <mxPoint x="410" y="-360" as="targetPoint" />
          </mxGeometry>
        </mxCell>
        <mxCell id="QVoJc7YLoi7SJxNaEA9z-73" value="" style="edgeStyle=entityRelationEdgeStyle;fontSize=12;html=1;endArrow=ERzeroToMany;startArrow=ERmandOne;rounded=0;" edge="1" parent="1" source="QVoJc7YLoi7SJxNaEA9z-18" target="QVoJc7YLoi7SJxNaEA9z-50">
          <mxGeometry width="100" height="100" relative="1" as="geometry">
            <mxPoint x="230" y="-805" as="sourcePoint" />
            <mxPoint x="230" y="-575" as="targetPoint" />
          </mxGeometry>
        </mxCell>
        <mxCell id="QVoJc7YLoi7SJxNaEA9z-74" value="TakeTopics" style="shape=table;startSize=30;container=1;collapsible=1;childLayout=tableLayout;fixedRows=1;rowLines=0;fontStyle=1;align=center;resizeLast=1;html=1;whiteSpace=wrap;" vertex="1" parent="1">
          <mxGeometry x="380" y="-370" width="180" height="90" as="geometry" />
        </mxCell>
        <mxCell id="QVoJc7YLoi7SJxNaEA9z-75" value="" style="shape=tableRow;horizontal=0;startSize=0;swimlaneHead=0;swimlaneBody=0;fillColor=none;collapsible=0;dropTarget=0;points=[[0,0.5],[1,0.5]];portConstraint=eastwest;top=0;left=0;right=0;bottom=0;html=1;" vertex="1" parent="QVoJc7YLoi7SJxNaEA9z-74">
          <mxGeometry y="30" width="180" height="30" as="geometry" />
        </mxCell>
        <mxCell id="QVoJc7YLoi7SJxNaEA9z-76" value="PK,FK1" style="shape=partialRectangle;connectable=0;fillColor=none;top=0;left=0;bottom=0;right=0;fontStyle=1;overflow=hidden;html=1;whiteSpace=wrap;" vertex="1" parent="QVoJc7YLoi7SJxNaEA9z-75">
          <mxGeometry width="60" height="30" as="geometry">
            <mxRectangle width="60" height="30" as="alternateBounds" />
          </mxGeometry>
        </mxCell>
        <mxCell id="QVoJc7YLoi7SJxNaEA9z-77" value="takeId" style="shape=partialRectangle;connectable=0;fillColor=none;top=0;left=0;bottom=0;right=0;align=left;spacingLeft=6;fontStyle=5;overflow=hidden;html=1;whiteSpace=wrap;" vertex="1" parent="QVoJc7YLoi7SJxNaEA9z-75">
          <mxGeometry x="60" width="120" height="30" as="geometry">
            <mxRectangle width="120" height="30" as="alternateBounds" />
          </mxGeometry>
        </mxCell>
        <mxCell id="QVoJc7YLoi7SJxNaEA9z-78" value="" style="shape=tableRow;horizontal=0;startSize=0;swimlaneHead=0;swimlaneBody=0;fillColor=none;collapsible=0;dropTarget=0;points=[[0,0.5],[1,0.5]];portConstraint=eastwest;top=0;left=0;right=0;bottom=1;html=1;" vertex="1" parent="QVoJc7YLoi7SJxNaEA9z-74">
          <mxGeometry y="60" width="180" height="30" as="geometry" />
        </mxCell>
        <mxCell id="QVoJc7YLoi7SJxNaEA9z-79" value="PK,FK2" style="shape=partialRectangle;connectable=0;fillColor=none;top=0;left=0;bottom=0;right=0;fontStyle=1;overflow=hidden;html=1;whiteSpace=wrap;" vertex="1" parent="QVoJc7YLoi7SJxNaEA9z-78">
          <mxGeometry width="60" height="30" as="geometry">
            <mxRectangle width="60" height="30" as="alternateBounds" />
          </mxGeometry>
        </mxCell>
        <mxCell id="QVoJc7YLoi7SJxNaEA9z-80" value="TopicId" style="shape=partialRectangle;connectable=0;fillColor=none;top=0;left=0;bottom=0;right=0;align=left;spacingLeft=6;fontStyle=5;overflow=hidden;html=1;whiteSpace=wrap;" vertex="1" parent="QVoJc7YLoi7SJxNaEA9z-78">
          <mxGeometry x="60" width="120" height="30" as="geometry">
            <mxRectangle width="120" height="30" as="alternateBounds" />
          </mxGeometry>
        </mxCell>
        <mxCell id="QVoJc7YLoi7SJxNaEA9z-81" value="" style="edgeStyle=entityRelationEdgeStyle;fontSize=12;html=1;endArrow=ERzeroToMany;startArrow=ERmandOne;rounded=0;" edge="1" parent="1" source="QVoJc7YLoi7SJxNaEA9z-18" target="QVoJc7YLoi7SJxNaEA9z-78">
          <mxGeometry width="100" height="100" relative="1" as="geometry">
            <mxPoint x="220" y="-355" as="sourcePoint" />
            <mxPoint x="230" y="-545" as="targetPoint" />
          </mxGeometry>
        </mxCell>
        <mxCell id="QVoJc7YLoi7SJxNaEA9z-82" value="" style="edgeStyle=entityRelationEdgeStyle;fontSize=12;html=1;endArrow=ERzeroToMany;startArrow=ERmandOne;rounded=0;" edge="1" parent="1" source="QVoJc7YLoi7SJxNaEA9z-28" target="QVoJc7YLoi7SJxNaEA9z-75">
          <mxGeometry width="100" height="100" relative="1" as="geometry">
            <mxPoint x="740" y="-684" as="sourcePoint" />
            <mxPoint x="1130" y="-564" as="targetPoint" />
          </mxGeometry>
        </mxCell>
        <mxCell id="QVoJc7YLoi7SJxNaEA9z-83" value="Arguments" style="shape=table;startSize=30;container=1;collapsible=1;childLayout=tableLayout;fixedRows=1;rowLines=0;fontStyle=1;align=center;resizeLast=1;html=1;" vertex="1" parent="1">
          <mxGeometry x="380" y="-810" width="180" height="210" as="geometry" />
        </mxCell>
        <mxCell id="QVoJc7YLoi7SJxNaEA9z-84" value="" style="shape=tableRow;horizontal=0;startSize=0;swimlaneHead=0;swimlaneBody=0;fillColor=none;collapsible=0;dropTarget=0;points=[[0,0.5],[1,0.5]];portConstraint=eastwest;top=0;left=0;right=0;bottom=1;" vertex="1" parent="QVoJc7YLoi7SJxNaEA9z-83">
          <mxGeometry y="30" width="180" height="30" as="geometry" />
        </mxCell>
        <mxCell id="QVoJc7YLoi7SJxNaEA9z-85" value="PK" style="shape=partialRectangle;connectable=0;fillColor=none;top=0;left=0;bottom=0;right=0;fontStyle=1;overflow=hidden;whiteSpace=wrap;html=1;" vertex="1" parent="QVoJc7YLoi7SJxNaEA9z-84">
          <mxGeometry width="30" height="30" as="geometry">
            <mxRectangle width="30" height="30" as="alternateBounds" />
          </mxGeometry>
        </mxCell>
        <mxCell id="QVoJc7YLoi7SJxNaEA9z-86" value="id" style="shape=partialRectangle;connectable=0;fillColor=none;top=0;left=0;bottom=0;right=0;align=left;spacingLeft=6;fontStyle=5;overflow=hidden;whiteSpace=wrap;html=1;" vertex="1" parent="QVoJc7YLoi7SJxNaEA9z-84">
          <mxGeometry x="30" width="150" height="30" as="geometry">
            <mxRectangle width="150" height="30" as="alternateBounds" />
          </mxGeometry>
        </mxCell>
        <mxCell id="QVoJc7YLoi7SJxNaEA9z-87" value="" style="shape=tableRow;horizontal=0;startSize=0;swimlaneHead=0;swimlaneBody=0;fillColor=none;collapsible=0;dropTarget=0;points=[[0,0.5],[1,0.5]];portConstraint=eastwest;top=0;left=0;right=0;bottom=0;" vertex="1" parent="QVoJc7YLoi7SJxNaEA9z-83">
          <mxGeometry y="60" width="180" height="30" as="geometry" />
        </mxCell>
        <mxCell id="QVoJc7YLoi7SJxNaEA9z-88" value="FK1" style="shape=partialRectangle;connectable=0;fillColor=none;top=0;left=0;bottom=0;right=0;editable=1;overflow=hidden;whiteSpace=wrap;html=1;" vertex="1" parent="QVoJc7YLoi7SJxNaEA9z-87">
          <mxGeometry width="30" height="30" as="geometry">
            <mxRectangle width="30" height="30" as="alternateBounds" />
          </mxGeometry>
        </mxCell>
        <mxCell id="QVoJc7YLoi7SJxNaEA9z-89" value="takeId" style="shape=partialRectangle;connectable=0;fillColor=none;top=0;left=0;bottom=0;right=0;align=left;spacingLeft=6;overflow=hidden;whiteSpace=wrap;html=1;" vertex="1" parent="QVoJc7YLoi7SJxNaEA9z-87">
          <mxGeometry x="30" width="150" height="30" as="geometry">
            <mxRectangle width="150" height="30" as="alternateBounds" />
          </mxGeometry>
        </mxCell>
        <mxCell id="QVoJc7YLoi7SJxNaEA9z-90" value="" style="shape=tableRow;horizontal=0;startSize=0;swimlaneHead=0;swimlaneBody=0;fillColor=none;collapsible=0;dropTarget=0;points=[[0,0.5],[1,0.5]];portConstraint=eastwest;top=0;left=0;right=0;bottom=0;" vertex="1" parent="QVoJc7YLoi7SJxNaEA9z-83">
          <mxGeometry y="90" width="180" height="30" as="geometry" />
        </mxCell>
        <mxCell id="QVoJc7YLoi7SJxNaEA9z-91" value="FK2" style="shape=partialRectangle;connectable=0;fillColor=none;top=0;left=0;bottom=0;right=0;editable=1;overflow=hidden;whiteSpace=wrap;html=1;" vertex="1" parent="QVoJc7YLoi7SJxNaEA9z-90">
          <mxGeometry width="30" height="30" as="geometry">
            <mxRectangle width="30" height="30" as="alternateBounds" />
          </mxGeometry>
        </mxCell>
        <mxCell id="QVoJc7YLoi7SJxNaEA9z-92" value="authorId" style="shape=partialRectangle;connectable=0;fillColor=none;top=0;left=0;bottom=0;right=0;align=left;spacingLeft=6;overflow=hidden;whiteSpace=wrap;html=1;" vertex="1" parent="QVoJc7YLoi7SJxNaEA9z-90">
          <mxGeometry x="30" width="150" height="30" as="geometry">
            <mxRectangle width="150" height="30" as="alternateBounds" />
          </mxGeometry>
        </mxCell>
        <mxCell id="QVoJc7YLoi7SJxNaEA9z-93" value="" style="shape=tableRow;horizontal=0;startSize=0;swimlaneHead=0;swimlaneBody=0;fillColor=none;collapsible=0;dropTarget=0;points=[[0,0.5],[1,0.5]];portConstraint=eastwest;top=0;left=0;right=0;bottom=0;" vertex="1" parent="QVoJc7YLoi7SJxNaEA9z-83">
          <mxGeometry y="120" width="180" height="30" as="geometry" />
        </mxCell>
        <mxCell id="QVoJc7YLoi7SJxNaEA9z-94" value="" style="shape=partialRectangle;connectable=0;fillColor=none;top=0;left=0;bottom=0;right=0;editable=1;overflow=hidden;whiteSpace=wrap;html=1;" vertex="1" parent="QVoJc7YLoi7SJxNaEA9z-93">
          <mxGeometry width="30" height="30" as="geometry">
            <mxRectangle width="30" height="30" as="alternateBounds" />
          </mxGeometry>
        </mxCell>
        <mxCell id="QVoJc7YLoi7SJxNaEA9z-95" value="type" style="shape=partialRectangle;connectable=0;fillColor=none;top=0;left=0;bottom=0;right=0;align=left;spacingLeft=6;overflow=hidden;whiteSpace=wrap;html=1;" vertex="1" parent="QVoJc7YLoi7SJxNaEA9z-93">
          <mxGeometry x="30" width="150" height="30" as="geometry">
            <mxRectangle width="150" height="30" as="alternateBounds" />
          </mxGeometry>
        </mxCell>
        <mxCell id="QVoJc7YLoi7SJxNaEA9z-96" value="" style="shape=tableRow;horizontal=0;startSize=0;swimlaneHead=0;swimlaneBody=0;fillColor=none;collapsible=0;dropTarget=0;points=[[0,0.5],[1,0.5]];portConstraint=eastwest;top=0;left=0;right=0;bottom=0;" vertex="1" parent="QVoJc7YLoi7SJxNaEA9z-83">
          <mxGeometry y="150" width="180" height="30" as="geometry" />
        </mxCell>
        <mxCell id="QVoJc7YLoi7SJxNaEA9z-97" value="" style="shape=partialRectangle;connectable=0;fillColor=none;top=0;left=0;bottom=0;right=0;editable=1;overflow=hidden;whiteSpace=wrap;html=1;" vertex="1" parent="QVoJc7YLoi7SJxNaEA9z-96">
          <mxGeometry width="30" height="30" as="geometry">
            <mxRectangle width="30" height="30" as="alternateBounds" />
          </mxGeometry>
        </mxCell>
        <mxCell id="QVoJc7YLoi7SJxNaEA9z-98" value="content" style="shape=partialRectangle;connectable=0;fillColor=none;top=0;left=0;bottom=0;right=0;align=left;spacingLeft=6;overflow=hidden;whiteSpace=wrap;html=1;" vertex="1" parent="QVoJc7YLoi7SJxNaEA9z-96">
          <mxGeometry x="30" width="150" height="30" as="geometry">
            <mxRectangle width="150" height="30" as="alternateBounds" />
          </mxGeometry>
        </mxCell>
        <mxCell id="QVoJc7YLoi7SJxNaEA9z-99" value="" style="shape=tableRow;horizontal=0;startSize=0;swimlaneHead=0;swimlaneBody=0;fillColor=none;collapsible=0;dropTarget=0;points=[[0,0.5],[1,0.5]];portConstraint=eastwest;top=0;left=0;right=0;bottom=0;" vertex="1" parent="QVoJc7YLoi7SJxNaEA9z-83">
          <mxGeometry y="180" width="180" height="30" as="geometry" />
        </mxCell>
        <mxCell id="QVoJc7YLoi7SJxNaEA9z-100" value="" style="shape=partialRectangle;connectable=0;fillColor=none;top=0;left=0;bottom=0;right=0;editable=1;overflow=hidden;whiteSpace=wrap;html=1;" vertex="1" parent="QVoJc7YLoi7SJxNaEA9z-99">
          <mxGeometry width="30" height="30" as="geometry">
            <mxRectangle width="30" height="30" as="alternateBounds" />
          </mxGeometry>
        </mxCell>
        <mxCell id="QVoJc7YLoi7SJxNaEA9z-101" value="createdAt" style="shape=partialRectangle;connectable=0;fillColor=none;top=0;left=0;bottom=0;right=0;align=left;spacingLeft=6;overflow=hidden;whiteSpace=wrap;html=1;" vertex="1" parent="QVoJc7YLoi7SJxNaEA9z-99">
          <mxGeometry x="30" width="150" height="30" as="geometry">
            <mxRectangle width="150" height="30" as="alternateBounds" />
          </mxGeometry>
        </mxCell>
        <mxCell id="QVoJc7YLoi7SJxNaEA9z-102" value="UserFollows" style="shape=table;startSize=30;container=1;collapsible=1;childLayout=tableLayout;fixedRows=1;rowLines=0;fontStyle=1;align=center;resizeLast=1;html=1;whiteSpace=wrap;" vertex="1" parent="1">
          <mxGeometry x="40" y="-1060" width="180" height="120" as="geometry" />
        </mxCell>
        <mxCell id="QVoJc7YLoi7SJxNaEA9z-103" value="" style="shape=tableRow;horizontal=0;startSize=0;swimlaneHead=0;swimlaneBody=0;fillColor=none;collapsible=0;dropTarget=0;points=[[0,0.5],[1,0.5]];portConstraint=eastwest;top=0;left=0;right=0;bottom=0;html=1;" vertex="1" parent="QVoJc7YLoi7SJxNaEA9z-102">
          <mxGeometry y="30" width="180" height="30" as="geometry" />
        </mxCell>
        <mxCell id="QVoJc7YLoi7SJxNaEA9z-104" value="PK,FK1" style="shape=partialRectangle;connectable=0;fillColor=none;top=0;left=0;bottom=0;right=0;fontStyle=1;overflow=hidden;html=1;whiteSpace=wrap;" vertex="1" parent="QVoJc7YLoi7SJxNaEA9z-103">
          <mxGeometry width="60" height="30" as="geometry">
            <mxRectangle width="60" height="30" as="alternateBounds" />
          </mxGeometry>
        </mxCell>
        <mxCell id="QVoJc7YLoi7SJxNaEA9z-105" value="followerId" style="shape=partialRectangle;connectable=0;fillColor=none;top=0;left=0;bottom=0;right=0;align=left;spacingLeft=6;fontStyle=5;overflow=hidden;html=1;whiteSpace=wrap;" vertex="1" parent="QVoJc7YLoi7SJxNaEA9z-103">
          <mxGeometry x="60" width="120" height="30" as="geometry">
            <mxRectangle width="120" height="30" as="alternateBounds" />
          </mxGeometry>
        </mxCell>
        <mxCell id="QVoJc7YLoi7SJxNaEA9z-106" value="" style="shape=tableRow;horizontal=0;startSize=0;swimlaneHead=0;swimlaneBody=0;fillColor=none;collapsible=0;dropTarget=0;points=[[0,0.5],[1,0.5]];portConstraint=eastwest;top=0;left=0;right=0;bottom=1;html=1;" vertex="1" parent="QVoJc7YLoi7SJxNaEA9z-102">
          <mxGeometry y="60" width="180" height="30" as="geometry" />
        </mxCell>
        <mxCell id="QVoJc7YLoi7SJxNaEA9z-107" value="PK,FK2" style="shape=partialRectangle;connectable=0;fillColor=none;top=0;left=0;bottom=0;right=0;fontStyle=1;overflow=hidden;html=1;whiteSpace=wrap;" vertex="1" parent="QVoJc7YLoi7SJxNaEA9z-106">
          <mxGeometry width="60" height="30" as="geometry">
            <mxRectangle width="60" height="30" as="alternateBounds" />
          </mxGeometry>
        </mxCell>
        <mxCell id="QVoJc7YLoi7SJxNaEA9z-108" value="followedId" style="shape=partialRectangle;connectable=0;fillColor=none;top=0;left=0;bottom=0;right=0;align=left;spacingLeft=6;fontStyle=5;overflow=hidden;html=1;whiteSpace=wrap;" vertex="1" parent="QVoJc7YLoi7SJxNaEA9z-106">
          <mxGeometry x="60" width="120" height="30" as="geometry">
            <mxRectangle width="120" height="30" as="alternateBounds" />
          </mxGeometry>
        </mxCell>
        <mxCell id="QVoJc7YLoi7SJxNaEA9z-109" value="" style="shape=tableRow;horizontal=0;startSize=0;swimlaneHead=0;swimlaneBody=0;fillColor=none;collapsible=0;dropTarget=0;points=[[0,0.5],[1,0.5]];portConstraint=eastwest;top=0;left=0;right=0;bottom=0;html=1;" vertex="1" parent="QVoJc7YLoi7SJxNaEA9z-102">
          <mxGeometry y="90" width="180" height="30" as="geometry" />
        </mxCell>
        <mxCell id="QVoJc7YLoi7SJxNaEA9z-110" value="" style="shape=partialRectangle;connectable=0;fillColor=none;top=0;left=0;bottom=0;right=0;editable=1;overflow=hidden;html=1;whiteSpace=wrap;" vertex="1" parent="QVoJc7YLoi7SJxNaEA9z-109">
          <mxGeometry width="60" height="30" as="geometry">
            <mxRectangle width="60" height="30" as="alternateBounds" />
          </mxGeometry>
        </mxCell>
        <mxCell id="QVoJc7YLoi7SJxNaEA9z-111" value="createdAt" style="shape=partialRectangle;connectable=0;fillColor=none;top=0;left=0;bottom=0;right=0;align=left;spacingLeft=6;overflow=hidden;html=1;whiteSpace=wrap;" vertex="1" parent="QVoJc7YLoi7SJxNaEA9z-109">
          <mxGeometry x="60" width="120" height="30" as="geometry">
            <mxRectangle width="120" height="30" as="alternateBounds" />
          </mxGeometry>
        </mxCell>
        <mxCell id="QVoJc7YLoi7SJxNaEA9z-112" value="" style="edgeStyle=entityRelationEdgeStyle;fontSize=12;html=1;endArrow=ERzeroToMany;startArrow=ERmandOne;rounded=0;" edge="1" parent="1" source="QVoJc7YLoi7SJxNaEA9z-2" target="QVoJc7YLoi7SJxNaEA9z-103">
          <mxGeometry width="100" height="100" relative="1" as="geometry">
            <mxPoint x="230" y="-805" as="sourcePoint" />
            <mxPoint x="390" y="-935" as="targetPoint" />
            <Array as="points">
              <mxPoint x="270" y="-910" />
              <mxPoint x="290" y="-910" />
            </Array>
          </mxGeometry>
        </mxCell>
        <mxCell id="QVoJc7YLoi7SJxNaEA9z-113" value="" style="edgeStyle=entityRelationEdgeStyle;fontSize=12;html=1;endArrow=ERzeroToMany;startArrow=ERmandOne;rounded=0;" edge="1" parent="1" source="QVoJc7YLoi7SJxNaEA9z-2" target="QVoJc7YLoi7SJxNaEA9z-106">
          <mxGeometry width="100" height="100" relative="1" as="geometry">
            <mxPoint x="240" y="-795" as="sourcePoint" />
            <mxPoint x="400" y="-925" as="targetPoint" />
            <Array as="points">
              <mxPoint x="260" y="-900" />
            </Array>
          </mxGeometry>
        </mxCell>
      </root>
    </mxGraphModel>
  </diagram>
</mxfile>
